<?xml version="1.0" encoding="UTF-8"?>
<svg width="112px" height="27px" viewBox="0 0 112 27" version="1.1" xmlns="http://www.w3.org/2000/svg" xmlns:xlink="http://www.w3.org/1999/xlink">
    <!-- Generator: Sketch 40.3 (33839) - http://www.bohemiancoding.com/sketch -->
    <title>CastrolLogo_Desktop_112x27</title>
    <desc>Created with Sketch.</desc>
    <defs>
        <polygon id="path-1" points="0 0.0814518828 112 0.0814518828 112 27 0 27"></polygon>
        <rect id="path-3" x="-15" y="-59" width="343" height="140" rx="2"></rect>
        <mask id="mask-4" maskContentUnits="userSpaceOnUse" maskUnits="objectBoundingBox" x="0" y="0" width="343" height="140" fill="white">
            <use xlink:href="#path-3"></use>
        </mask>
    </defs>
    <g id="Mobile-Screens" stroke="none" stroke-width="1" fill="none" fill-rule="evenodd">
        <g id="CastrolLogo_Desktop_112x27">
            <g id="Page-1">
                <g id="Group-3">
                    <mask id="mask-2" fill="white">
                        <use xlink:href="#path-1"></use>
                    </mask>
                    <g id="Clip-2"></g>
                    <path d="M112,0.0814405858 L18.54944,0.0814405858 C15.532048,0.0814405858 13.99608,0.116235565 12.310816,0.32195523 C8.532384,0.765478243 5.191872,2.4130431 3.14496,4.84281715 C1.090096,7.31292176 0,10.312859 0,13.5282314 C0,17.1691644 1.428112,20.592177 4.027968,23.1627126 C5.966912,25.0760975 8.463952,26.2278339 11.647328,26.7131561 C13.780256,27.0368172 15.910272,27.010269 17.790528,26.9880138 L19.101376,26.9784113 L104.59848,26.9784113 L111.99664,0.0814405858 L112,0.0814405858 Z" id="Fill-1" fill="#008E3A" mask="url(#mask-2)"></path>
                </g>
                <path d="M104.132683,26.372651 L102.58873,26.372651 L19.1013872,26.372651 C13.9095152,26.372651 8.5106672,26.7242159 4.4474192,22.7226803 C2.0624912,20.3722117 0.5946192,17.1183163 0.5946192,13.5282201 C0.5946192,10.3814209 1.7202192,7.44768452 3.5821072,5.22814895 C5.7065232,2.68992301 9.0612592,1.31574728 12.3883312,0.916960669 C14.0938672,0.7074 15.6918832,0.682207531 18.5494512,0.682207531 L111.206715,0.682207531 L104.132683,26.372651 Z" id="Fill-4" fill="#FEFEFE"></path>
                <path d="M83.309016,10.0410176 C82.891928,10.0410176 82.60476,10.2253858 82.308296,10.5191096 C81.308584,11.5072644 80.1542,14.5241473 79.5942,16.8565406 C79.326856,17.981277 79.2106,18.6131222 79.2106,19.2780678 C79.2106,19.9043774 79.488808,20.2501808 79.974664,20.2501808 C80.348856,20.2501808 80.760008,19.9844736 81.052888,19.6779841 C81.570664,19.1177623 81.928168,18.3363439 82.337976,17.3497707 C83.317192,15.0143272 84.012264,11.9877289 84.012264,10.995846 C84.012264,10.5151556 83.871256,10.0410176 83.309016,10.0410176 L83.309016,10.0410176 Z M86.850008,16.4904025 C85.617224,19.9545364 83.596856,22.7488669 79.618616,22.7488669 C76.852664,22.7488669 75.29508,21.414118 75.29508,18.552231 C75.29508,17.2810845 75.607,15.9375238 75.997432,14.7433105 C77.126952,11.4115782 79.564408,7.52640251 83.465144,7.52640251 C86.379496,7.52640251 87.789912,9.00699665 87.789912,11.9200594 C87.789912,13.3208962 87.319288,15.1619799 86.850008,16.4904025 L86.850008,16.4904025 Z M41.895784,18.6280343 C41.895784,19.5358669 42.31332,20.2457749 43.28324,20.2457749 C43.651048,20.2457749 43.99052,20.2457749 44.358552,20.1657916 L45.6442,15.4401138 C43.862056,15.6506912 41.895784,16.5166117 41.895784,18.6280343 L41.895784,18.6280343 Z M50.098328,13.1878167 L47.663112,22.0963481 C45.957352,22.5368209 44.201528,22.8029799 42.419496,22.8029799 C40.165384,22.8029799 37.936248,21.7018544 37.936248,19.1272519 C37.936248,14.6645699 42.706776,13.3974904 46.272856,13.0525908 C46.454408,12.4735029 46.639992,11.863913 46.639992,11.2594067 C46.639992,10.251595 45.773,10.0115322 44.93412,10.0115322 C43.757336,10.0115322 42.156296,10.3297707 41.02868,10.7031389 L41.6598,8.26771632 C42.866824,7.74330628 44.702392,7.50019331 46.010328,7.50019331 C48.15916,7.50019331 50.465464,8.19134812 50.465464,10.7805238 C50.465464,11.5994485 50.31124,12.3947623 50.098328,13.1878167 L50.098328,13.1878167 Z M78.567496,7.91807197 C77.976472,7.59881674 76.96556,7.52403013 76.155464,7.52403013 C74.5038,7.52403013 72.561272,7.81944854 71.068872,8.58595481 L67.26692,22.4079213 L71.094184,22.4079213 L74.361112,10.3815113 C74.929736,10.1712728 75.501048,10.0912895 76.099912,10.0912895 C76.587336,10.0912895 76.863528,10.1191933 77.097384,10.1301515 L78.567496,7.91807197 Z M39.67852,7.24725188 C39.67852,4.62881674 37.9218,3.70256987 35.561064,3.70256987 C33.177144,3.70256987 31.156664,4.81420167 29.637608,6.63551548 C27.515544,9.20062845 25.759272,14.621641 25.759272,17.9287456 C25.759272,21.3951389 27.17372,23.0598753 30.657256,23.0598753 C35.510328,23.0598753 36.687112,19.0825155 37.815064,15.1442435 L33.62156,15.9461096 C33.280632,17.0482519 32.441304,20.2517623 30.9722,20.2517623 C30.082136,20.2517623 29.900472,19.412277 29.900472,18.6637331 C29.900472,16.4453272 31.21132,12.2194318 31.994536,10.1028126 C32.41588,8.98914728 33.48884,6.42764937 34.960968,6.42764937 C35.294728,6.42764937 35.529816,6.61167866 35.6342,6.78452385 C35.76636,6.99419749 35.801416,7.22544854 35.801416,7.520641 C35.801416,7.63745272 35.770728,7.98359498 35.721896,8.23856987 C35.622328,8.76783766 34.851544,11.5544862 34.851544,11.5544862 L38.892392,10.8388167 C39.205096,9.75655732 39.67852,8.38159079 39.67852,7.24725188 L39.67852,7.24725188 Z M60.737768,7.92722259 C59.762472,7.63451548 58.694776,7.50019331 57.6954,7.50019331 C54.7386,7.50019331 51.600808,9.11522259 51.571912,12.4735029 C51.545256,15.5160301 55.205976,16.5427079 55.19108,18.2634778 C55.179992,19.6677038 53.941944,20.1897414 52.73492,20.1897414 C51.768248,20.1897414 50.735944,20.0592603 49.794696,19.7996536 L49.128856,22.1223314 C50.358728,22.5150176 51.852136,22.6961096 53.132744,22.6961096 C56.119784,22.6961096 58.891112,20.9792937 58.919336,17.7137623 C58.949016,14.4806536 55.4918,13.7657749 55.506136,11.9200594 C55.519128,10.4925615 56.944888,10.0694862 58.114392,10.0694862 C58.750328,10.0694862 59.423112,10.1191933 60.055576,10.251595 L60.737768,7.92722259 Z M69.774824,8.00494644 L66.968552,8.00494644 L68.071192,3.93370795 L64.033256,4.5934569 L63.136472,8.00494644 L61.748008,8.00494644 L61.121256,10.251595 L62.513528,10.251595 C62.513528,10.251595 60.3666,18.1560427 60.199944,18.8135322 C60.096344,19.2433858 59.9942,19.7729925 59.9942,20.1897414 C59.9942,21.2566368 60.680424,22.0178335 61.564552,22.2498753 C61.900216,22.3561808 62.487656,22.4079213 63.136472,22.4079213 L65.922472,22.4079213 L66.551016,20.1395824 L65.129176,20.1395824 C64.502536,20.1395824 63.922152,20.0854695 63.922152,19.3508209 C63.922152,19.1630636 63.977592,18.9424318 64.033256,18.6802268 C64.11356,18.3662812 66.336088,10.251595 66.336088,10.251595 L69.137096,10.251595 L69.774824,8.00494644 Z M91.786744,18.2337665 C91.707336,18.602277 91.65324,18.9167874 91.65324,19.1906285 C91.65324,19.9806326 92.26644,20.1395824 92.921528,20.1395824 L94.233944,20.1395824 L93.705304,22.4079213 L91.086408,22.4079213 C90.274408,22.4079213 89.614056,22.3301975 89.224744,22.1707958 C88.33524,21.8065782 87.749144,21.0031305 87.749144,19.8238293 C87.749144,19.30021 87.853192,18.7347916 87.984344,18.1828167 C88.14372,17.5003607 91.677656,4.70021423 91.677656,4.70021423 L95.69812,3.93370795 C95.69812,3.93370795 91.92372,17.6578418 91.786744,18.2337665 L91.786744,18.2337665 Z" id="Fill-6" fill="#ED1B2D"></path>
                <path d="M8.0713024,9.76047741 L23.3033024,9.76047741 C21.7932064,5.74911339 17.9480224,2.90225146 13.4408064,2.90225146 C12.0532384,2.90225146 10.6758624,3.21088745 9.7622784,3.67926402 L8.0713024,9.76047741 Z" id="Fill-8" fill="#0E7851"></path>
                <path d="M7.3621184,16.7160389 C6.6851904,16.7160389 6.1071584,16.6415912 5.7103424,16.4508967 C5.0775424,16.1670013 4.5928064,15.5759385 4.5928064,14.6254029 C4.5928064,13.822746 4.8227424,13.0888883 5.0904224,12.1552983 L7.1144864,5.0266205 C4.5545024,6.96519791 2.8989184,10.054382 2.8989184,13.5301519 C2.8989184,19.4102774 7.6197184,24.1610347 13.4408064,24.1610347 C18.1629504,24.1610347 22.1598944,21.0352481 23.5033344,16.7160389 L7.3621184,16.7160389 Z" id="Fill-10" fill="#0E7851"></path>
                <path id="Fill-12" fill="#ED1B2D"></path>
                <path id="Fill-14" fill="#ED1B2D"></path>
                <path id="Fill-16" fill="#ED1B2D"></path>
                <path d="M12.000128,14.3748113 L11.248384,14.3748113 C11.044096,14.3748113 10.874864,14.543334 10.874864,14.7507204 C10.874864,14.9557204 11.044096,15.1248113 11.248384,15.1248113 L11.781392,15.1248113 L12.000128,14.3748113 Z" id="Fill-18" fill="#ED1B2D"></path>
                <path id="Fill-20" fill="#ED1B2D"></path>
                <path id="Fill-22" fill="#ED1B2D"></path>
                <path id="Fill-24" fill="#ED1B2D"></path>
                <path d="M11.71044,13.6247874 L12.219816,13.6247874 L12.443368,12.855005 L11.71044,12.855005 C11.504584,12.855005 11.338936,13.0307874 11.338936,13.2423816 C11.338936,13.4500218 11.504584,13.6247874 11.71044,13.6247874" id="Fill-26" fill="#ED1B2D"></path>
                <path id="Fill-28" fill="#ED1B2D"></path>
                <path d="M12.8397696,11.3583464 L12.1394336,11.3583464 C11.9331296,11.3583464 11.7679296,11.527767 11.7679296,11.7357797 C11.7679296,11.9437923 11.9331296,12.1083464 12.1394336,12.1083464 L12.6632576,12.1083464 L12.8815456,11.3583464 L12.8397696,11.3583464 Z" id="Fill-30" fill="#ED1B2D"></path>
                <path id="Fill-32" fill="#ED1B2D"></path>
                <path id="Fill-34" fill="#ED1B2D"></path>
                <path id="Fill-36" fill="#ED1B2D"></path>
                <path d="M18.3199856,11.9760816 L17.8528336,11.9760816 C17.7402736,11.9760816 17.6473136,11.8790397 17.6473136,11.7631318 C17.6473136,11.6491444 17.7402736,11.5592197 17.8528336,11.5592197 L18.3199856,11.5592197 C18.4324336,11.5592197 18.5236016,11.6491444 18.5236016,11.7631318 C18.5236016,11.8790397 18.4324336,11.9760816 18.3199856,11.9760816 L18.3199856,11.9760816 Z M17.8818416,13.4476381 L17.4161456,13.4476381 C17.3026896,13.4476381 17.2078256,13.3587301 17.2078256,13.2423703 C17.2078256,13.1293996 17.3026896,13.0307762 17.4161456,13.0307762 L17.8818416,13.0307762 C17.9939536,13.0307762 18.0860176,13.1293996 18.0860176,13.2423703 C18.0860176,13.3587301 17.9939536,13.4476381 17.8818416,13.4476381 L17.8818416,13.4476381 Z M17.4424656,14.9255209 L16.9750896,14.9255209 C16.8630896,14.9255209 16.7702416,14.8306255 16.7702416,14.7205921 C16.7702416,14.6085251 16.8630896,14.5166799 16.9750896,14.5166799 L17.4424656,14.5166799 C17.5558096,14.5166799 17.6473136,14.6085251 17.6473136,14.7205921 C17.6473136,14.8306255 17.5558096,14.9255209 17.4424656,14.9255209 L17.4424656,14.9255209 Z M16.4920336,14.2028473 L16.0243216,14.2028473 C15.9113136,14.2028473 15.8184656,14.1139393 15.8184656,13.991705 C15.8184656,13.8782824 15.9113136,13.7885837 16.0243216,13.7885837 L16.4920336,13.7885837 C16.6041456,13.7885837 16.6956496,13.8782824 16.6956496,13.991705 C16.6956496,14.1139393 16.6041456,14.2028473 16.4920336,14.2028473 L16.4920336,14.2028473 Z M15.5393616,13.4476381 L15.0710896,13.4476381 C14.9586416,13.4476381 14.8655696,13.3587301 14.8655696,13.2423703 C14.8655696,13.1293996 14.9586416,13.0307762 15.0710896,13.0307762 L15.5393616,13.0307762 C15.6518096,13.0307762 15.7423056,13.1293996 15.7423056,13.2423703 C15.7423056,13.3587301 15.6518096,13.4476381 15.5393616,13.4476381 L15.5393616,13.4476381 Z M15.0989776,14.9255209 L14.6339536,14.9255209 C14.5204976,14.9255209 14.4266416,14.8306255 14.4266416,14.7205921 C14.4266416,14.6085251 14.5204976,14.5166799 14.6339536,14.5166799 L15.0989776,14.5166799 C15.2123216,14.5166799 15.3032656,14.6085251 15.3032656,14.7205921 C15.3032656,14.8306255 15.2123216,14.9255209 15.0989776,14.9255209 L15.0989776,14.9255209 Z M13.5044336,14.2759393 C13.3494256,14.2759393 13.2243216,14.1526883 13.2243216,13.991705 C13.2243216,13.8387427 13.3494256,13.714136 13.5044336,13.714136 L14.2691696,13.714136 C14.4227216,13.714136 14.5505136,13.8387427 14.5505136,13.991705 C14.5505136,14.1526883 14.4227216,14.2759393 14.2691696,14.2759393 L13.5044336,14.2759393 Z M13.9468336,12.1987469 L14.7105616,12.1987469 C14.8642256,12.1987469 14.9915696,12.3242573 14.9915696,12.4793661 C14.9915696,12.6325544 14.8642256,12.7624707 14.7105616,12.7624707 L13.9468336,12.7624707 C13.7918256,12.7624707 13.6661616,12.6325544 13.6661616,12.4793661 C13.6661616,12.3242573 13.7918256,12.1987469 13.9468336,12.1987469 L13.9468336,12.1987469 Z M15.5101296,11.5592197 L15.9768336,11.5592197 C16.0892816,11.5592197 16.1812336,11.6491444 16.1812336,11.7631318 C16.1812336,11.8790397 16.0892816,11.9760816 15.9768336,11.9760816 L15.5101296,11.9760816 C15.3965616,11.9760816 15.3032656,11.8790397 15.3032656,11.7631318 C15.3032656,11.6491444 15.3965616,11.5592197 15.5101296,11.5592197 L15.5101296,11.5592197 Z M16.4657136,12.2755669 L16.9325296,12.2755669 C17.0445296,12.2755669 17.1356976,12.3648138 17.1356976,12.4793661 C17.1356976,12.5927887 17.0445296,12.6868933 16.9325296,12.6868933 L16.4657136,12.6868933 C16.3521456,12.6868933 16.2592976,12.5927887 16.2592976,12.4793661 C16.2592976,12.3648138 16.3521456,12.2755669 16.4657136,12.2755669 L16.4657136,12.2755669 Z M23.8834736,13.3442699 C23.8834736,12.6653159 23.8179536,12.0060188 23.6939696,11.3583577 L13.5016336,11.3583577 C13.6692976,11.4043368 13.7912656,11.5563954 13.7912656,11.7351151 C13.7912656,11.9447887 13.6259536,12.1070146 13.4172976,12.1070146 L12.6627536,12.1070146 L12.4420016,12.8549937 L12.9874416,12.8549937 C13.1947536,12.8549937 13.3593936,13.0230941 13.3593936,13.2432741 C13.3593936,13.4515921 13.1947536,13.6224038 12.9874416,13.6224038 L12.2213616,13.6224038 L12.0001616,14.3747887 L12.5200656,14.3747887 C12.7292816,14.3747887 12.8945936,14.5384833 12.8945936,14.7484958 C12.8945936,14.9321862 12.7585136,15.0857134 12.5780816,15.1229937 L23.7299216,15.1229937 C23.8303856,14.5458264 23.8834736,13.9474205 23.8834736,13.3442699 L23.8834736,13.3442699 Z" id="Fill-38" fill="#ED1B2D"></path>
            </g>
        </g>
        <use id="Rectangle-12" stroke="#525759" mask="url(#mask-4)" stroke-width="2" xlink:href="#path-3"></use>
    </g>
</svg>