<?xml version="1.0" encoding="UTF-8" standalone="no"?>
<svg width="104px" height="104px" viewBox="0 0 104 104" version="1.1" xmlns="http://www.w3.org/2000/svg" xmlns:xlink="http://www.w3.org/1999/xlink">
    <!-- Generator: Sketch 3.7.2 (28276) - http://www.bohemiancoding.com/sketch -->
    <title>user</title>
    <desc>Created with Sketch.</desc>
    <defs>
        <path d="M96.6081839,13.7733872 C86.8620603,5.5227632 69.0619116,0 48.7184466,0 C28.1080859,0 10.1082132,5.66862536 0.449288291,14.0995212 C7.91884999,33.3242092 26.6010277,46.9514563 48.4660194,46.9514563 C70.4544489,46.9514563 89.2240261,33.169911 96.6081839,13.7733872 Z" id="path-1"></path>
        <mask id="mask-2" maskContentUnits="userSpaceOnUse" maskUnits="objectBoundingBox" x="0" y="0" width="96.1588956" height="46.9514563" fill="white">
            <use xlink:href="#path-1"></use>
        </mask>
        <path d="M52.2524272,52.5048544 C65.4965372,52.5048544 76.2330097,41.7683819 76.2330097,28.5242718 C76.2330097,15.2801618 65.4965372,4.54368932 52.2524272,4.54368932 C39.0083172,4.54368932 28.2718447,15.2801618 28.2718447,28.5242718 C28.2718447,41.7683819 39.0083172,52.5048544 52.2524272,52.5048544 Z" id="path-3"></path>
        <mask id="mask-4" maskContentUnits="userSpaceOnUse" maskUnits="objectBoundingBox" x="0" y="0" width="47.961165" height="47.961165" fill="white">
            <use xlink:href="#path-3"></use>
        </mask>
    </defs>
    <g id="productSelector---ACTIVE" stroke="none" stroke-width="1" fill="none" fill-rule="evenodd">
        <g id="desktop---login" transform="translate(-568.000000, -223.000000)">
            <g id="log-in-card" transform="translate(428.000000, 159.000000)">
                <g id="user" transform="translate(140.000000, 64.000000)">
                    <g id="userIllustration">
                        <g id="outer">
                            <circle id="Oval-16" fill="#D9D9D9" cx="52" cy="52" r="51.2427184"></circle>
                            <circle id="Oval-16" cx="52" cy="52" r="51.6213592"></circle>
                        </g>
                        <g id="body" transform="translate(0.504854, 0.504854)">
                            <g id="Rectangle-159" transform="translate(4.543689, 45.436893)"></g>
                            <g id="Group" transform="translate(3.029126, 56.038835)" stroke="#D9D9D9" stroke-width="4" fill="#FFFFFF">
                                <use id="Combined-Shape" mask="url(#mask-2)" xlink:href="#path-1"></use>
                            </g>
                        </g>
                        <use id="head" stroke="#D9D9D9" mask="url(#mask-4)" stroke-width="4" fill="#FFFFFF" xlink:href="#path-3"></use>
                    </g>
                </g>
            </g>
        </g>
    </g>
</svg>