<?xml version="1.0" standalone="no"?>
<!DOCTYPE svg PUBLIC "-//W3C//DTD SVG 20010904//EN"
 "http://www.w3.org/TR/2001/REC-SVG-20010904/DTD/svg10.dtd">
<svg version="1.0" xmlns="http://www.w3.org/2000/svg"
 width="374.000000pt" height="374.000000pt" viewBox="0 0 374.000000 374.000000"
 preserveAspectRatio="xMidYMid meet">
<metadata>
Created by potrace 1.11, written by Peter Selinger 2001-2013
</metadata>
<g transform="translate(0.000000,374.000000) scale(0.100000,-0.100000)"
fill="#000000" stroke="none">
<path d="M1657 3724 c-49 -7 -121 -20 -160 -29 -101 -24 -256 -86 -261 -105
-3 -8 -21 -76 -41 -150 -21 -74 -54 -196 -75 -270 -127 -453 -172 -622 -166
-627 7 -8 2620 -10 2641 -3 12 4 6 25 -30 104 -187 416 -523 753 -927 931 -46
20 -92 40 -103 45 -67 31 -241 76 -405 105 -68 12 -385 12 -473 -1z"/>
<path d="M674 3281 c-318 -278 -545 -685 -610 -1096 -3 -22 -8 -51 -10 -65
-10 -55 -12 -380 -3 -455 93 -800 682 -1454 1454 -1614 144 -30 211 -36 380
-36 177 0 222 4 400 39 11 2 40 9 65 16 508 134 944 491 1185 970 45 90 107
249 102 264 -3 8 -419 11 -1453 12 -797 0 -1474 4 -1504 8 -187 24 -313 129
-335 281 -20 129 -4 224 90 555 36 129 68 242 70 250 2 8 40 141 83 295 157
551 184 647 180 651 -2 2 -44 -32 -94 -75z"/>
<path d="M1631 2249 c-21 -8 -41 -38 -41 -62 0 -8 8 -25 18 -38 15 -18 30 -23
76 -24 32 0 60 4 64 9 4 6 14 36 23 67 l15 55 -67 0 c-37 0 -77 -3 -88 -7z"/>
<path d="M1910 2248 c0 -4 4 -8 8 -8 14 0 31 -46 26 -67 -9 -33 -53 -50 -128
-48 -40 1 -69 -3 -72 -9 -2 -6 -10 -36 -19 -67 l-15 -55 -75 -1 c-83 0 -109
-14 -118 -60 -3 -19 2 -33 19 -50 21 -21 32 -24 81 -21 l56 3 16 55 c9 30 19
60 23 66 4 7 31 10 65 8 64 -4 93 -26 93 -70 0 -47 -32 -64 -119 -64 l-80 0
-17 -60 c-9 -33 -21 -63 -26 -66 -5 -3 -40 -6 -78 -6 -60 0 -73 -4 -93 -24
-48 -48 -10 -106 70 -106 70 0 70 0 77 30 4 15 12 44 17 65 l10 38 57 -2 c43
-2 62 -8 79 -25 27 -27 28 -39 9 -76 -8 -15 -12 -29 -8 -31 4 -2 437 -3 962
-2 l954 0 7 35 c18 84 25 325 15 435 -9 89 -16 141 -21 165 l-6 26 -884 0
c-487 0 -885 -4 -885 -8z m447 -45 c9 -11 9 -21 2 -34 -8 -15 -21 -19 -68 -19
-66 0 -93 18 -74 48 19 31 117 34 140 5z m408 -18 l0 -30 -64 0 c-49 0 -66 4
-74 17 -8 12 -7 21 3 33 10 12 27 15 74 13 60 -3 61 -3 61 -33z m-628 -90 c23
-16 24 -45 2 -71 -15 -19 -182 -20 -196 -1 -21 27 -22 48 -3 67 17 17 34 20
98 20 53 0 84 -5 99 -15z m382 -9 c15 -10 14 -43 -1 -53 -18 -11 -100 -12
-120 -1 -23 11 -23 44 -1 56 18 10 104 9 122 -2z m-257 -125 c4 -1 12 -10 18
-22 18 -33 -4 -49 -70 -49 -62 0 -82 13 -70 45 9 26 56 36 122 26z m426 -15
c11 -11 11 -18 3 -35 -10 -18 -21 -21 -71 -21 -48 0 -61 4 -69 19 -13 24 5 48
39 53 41 6 83 -1 98 -16z m-641 -110 c27 -9 38 -39 23 -66 -12 -22 -8 -22
-108 -24 -48 -1 -80 2 -93 12 -22 15 -25 54 -6 70 20 17 139 22 184 8z m398
-41 c0 -28 -3 -30 -45 -35 -62 -7 -88 -1 -96 22 -11 35 14 49 80 46 60 -3 61
-3 61 -33z m-240 -117 c11 -32 -12 -48 -69 -48 -62 0 -79 10 -74 41 2 19 11
25 38 29 58 8 99 0 105 -22z m388 18 c29 -7 36 -33 15 -54 -17 -17 -113 -15
-128 3 -21 25 -8 50 30 55 19 4 40 5 45 4 6 -1 22 -5 38 -8z"/>
<path d="M864 2205 c-12 -31 4 -45 53 -45 59 0 77 11 68 39 -5 18 -14 21 -61
21 -39 0 -56 -4 -60 -15z"/>
<path d="M1225 2199 c-10 -30 10 -40 70 -37 46 3 50 5 50 28 0 23 -4 25 -57
28 -50 3 -57 1 -63 -19z"/>
<path d="M1361 2098 c-41 -15 -31 -77 12 -79 95 -5 141 0 154 17 16 22 16 26
0 48 -11 15 -28 19 -81 20 -37 0 -75 -2 -85 -6z"/>
<path d="M1004 2076 c-14 -36 3 -47 63 -44 54 3 58 5 58 28 0 23 -4 25 -58 28
-44 2 -59 0 -63 -12z"/>
<path d="M797 1949 c-22 -13 -22 -36 1 -47 20 -10 82 -9 100 2 15 9 16 33 1
41 -18 12 -84 14 -102 4z"/>
<path d="M1159 1949 c-19 -11 -19 -38 -1 -47 14 -7 75 -9 103 -3 13 2 17 41 6
48 -16 10 -93 12 -108 2z"/>
<path d="M1277 1828 c-20 -10 -22 -49 -5 -66 7 -7 42 -12 88 -12 77 0 100 9
100 40 -1 35 -18 44 -92 46 -41 1 -82 -2 -91 -8z"/>
<path d="M938 1822 c-10 -2 -18 -12 -18 -22 0 -25 25 -37 74 -36 44 1 70 26
49 47 -12 12 -72 18 -105 11z"/>
<path d="M705 1669 c-10 -30 10 -40 70 -37 46 3 50 5 50 28 0 23 -4 25 -57 28
-50 3 -57 1 -63 -19z"/>
<path d="M1071 1672 c-15 -28 5 -42 60 -42 54 0 80 20 59 45 -19 23 -106 20
-119 -3z"/>
</g>
</svg>
