<?xml version="1.0" standalone="no"?>
<!DOCTYPE svg PUBLIC "-//W3C//DTD SVG 1.1//EN" "http://www.w3.org/Graphics/SVG/1.1/DTD/svg11.dtd" >
<svg xmlns="http://www.w3.org/2000/svg">
<metadata></metadata>
<defs>
<font id="castrolsanscon-regularregular" horiz-adv-x="1048" >
<font-face units-per-em="2048" ascent="1638" descent="-410" />
<missing-glyph horiz-adv-x="362" />
<glyph horiz-adv-x="0" />
<glyph horiz-adv-x="682" />
<glyph unicode=" "  horiz-adv-x="362" />
<glyph unicode="&#x09;" horiz-adv-x="362" />
<glyph unicode="&#xa0;" horiz-adv-x="362" />
<glyph unicode="!" horiz-adv-x="548" d="M197 0v233h209v-233h-209zM197 903v678h209v-682q0 -55 -3.5 -94t-7.5 -94l-20 -375h-154l-16 379q-4 55 -6 94t-2 94z" />
<glyph unicode="&#x22;" horiz-adv-x="833" d="M154 1581h182l-23 -469h-137zM500 1581h182l-25 -469h-135z" />
<glyph unicode="#" d="M12 526l19 115h188l37 229q6 37 18 74q-16 -2 -39.5 -3t-37.5 -1h-119l18 115h189l84 526h168l-72 -457q-6 -37 -19 -73q66 8 118 6t118 -2l84 526h170l-74 -457q-4 -18 -8 -36.5t-10 -36.5q16 2 30.5 3t28.5 1h133l-18 -115h-184l-37 -229q-6 -37 -19 -74q16 2 30.5 3 t29.5 1h137l-19 -115h-188l-84 -526h-170l74 457q4 20 8 38.5t10 36.5q-41 -6 -78 -6h-157l-84 -526h-168l71 457q6 39 19 75q-8 -2 -9 -3t-3 -2t-7.5 -1h-19.5h-158zM381 637q66 8 118 6t117 -2l37 229q4 18 8.5 37t8.5 37h2q-66 -8 -118 -6t-118 2q-12 -76 -23.5 -152.5 t-31.5 -150.5z" />
<glyph unicode="$" horiz-adv-x="1003" d="M119 444v53.5t2 53.5h209v-23q0 -29 -1 -60.5t0 -65t4 -66.5t11 -60q16 -57 59 -84.5t103 -27.5q57 0 91 22.5t51.5 58.5t22.5 81t5 92q0 33 -2 67.5t-12 67.5q-12 37 -42 66.5t-67 52t-77 41t-73 35.5q-55 27 -110 59.5t-90 85.5q-39 57 -55.5 132t-16.5 142 q0 76 14.5 142.5t48 117t89 84t137.5 45.5v193h160v-193q90 -12 148 -47.5t92 -91t46.5 -127t12.5 -153.5v-39t-2 -39h-211q2 14 2 27.5v27.5q0 41 -2 94.5t-21 89.5q-18 41 -57 62.5t-82 21.5q-47 0 -78 -17t-49.5 -46t-26.5 -67t-8 -76q0 -53 9 -88t27.5 -61t49.5 -46 t74 -45q33 -18 63.5 -35.5t63.5 -36.5q66 -37 122 -71.5t91 -104.5q29 -59 37 -123.5t8 -130.5q0 -92 -10.5 -168t-43 -132t-94 -94t-161.5 -52v-199h-160v199q-98 20 -157.5 60t-91.5 96.5t-42 132t-10 167.5z" />
<glyph unicode="%" horiz-adv-x="1435" d="M102 975v414q0 106 69 157t169 51q92 0 158.5 -47t66.5 -147v-412q0 -111 -62.5 -167t-170.5 -56q-98 0 -164 51t-66 156zM250 991q0 -41 20.5 -67.5t63.5 -26.5q41 0 61.5 24.5t20.5 65.5v402q0 39 -23.5 60t-60.5 21q-43 0 -62.5 -27.5t-19.5 -68.5v-383zM362 -25 l566 1606h139l-561 -1606h-144zM874 180v418q0 106 67 156.5t165 50.5q100 0 163.5 -51.5t63.5 -155.5v-422q0 -109 -65.5 -155t-165.5 -46q-98 0 -163 50.5t-65 154.5zM1024 201q0 -43 17.5 -72t64.5 -29q49 0 64.5 31t15.5 74v393q0 37 -22.5 58.5t-59.5 21.5t-58.5 -21.5 t-21.5 -58.5v-397z" />
<glyph unicode="&#x26;" horiz-adv-x="1218" d="M98 426q0 80 16.5 144.5t47.5 119.5t76 106.5t102 102.5q-66 92 -112 184.5t-46 208.5q0 74 25.5 131.5t71 98.5t105.5 62.5t132 21.5q68 0 127 -19.5t103.5 -57.5t70 -93.5t25.5 -126.5q0 -72 -19.5 -132.5t-52.5 -113.5t-77 -101.5t-93 -95.5q59 -96 119.5 -189 t114.5 -194l4 2q29 66 62.5 129.5t68.5 126.5h221l-234 -436q20 -37 40 -59.5t43.5 -35.5t52 -18.5t69.5 -5.5v-186q-25 -4 -49.5 -7t-50.5 -3q-78 0 -133.5 42t-91.5 105q-72 -82 -152 -122t-190 -40q-104 0 -179 34t-123.5 94.5t-71 143.5t-22.5 179zM309 422 q0 -47 9.5 -94t33 -85t60.5 -61.5t92 -23.5q78 0 130 42t87 107l-229 352q-12 18 -21.5 37t-19.5 41q-74 -66 -108 -141.5t-34 -173.5zM391 1280q0 -80 30 -136.5t73 -119.5q59 59 100 124.5t41 151.5q0 53 -31 88t-86 35q-63 0 -95 -42t-32 -101z" />
<glyph unicode="'" horiz-adv-x="466" d="M141 1581h183l-23 -469h-137z" />
<glyph unicode="(" horiz-adv-x="686" d="M127 578q0 121 17.5 255t52 266t86 256t116.5 226h187q-47 -80 -80 -166t-60 -174q-53 -170 -75.5 -327.5t-22.5 -335.5q0 -90 5 -173t17.5 -164t31 -162t44.5 -167q27 -88 60 -174t80 -166h-187q-68 102 -118 227t-84.5 257t-52 265.5t-17.5 256.5z" />
<glyph unicode=")" horiz-adv-x="686" d="M98 -428q59 111 104.5 234.5t75 252.5t44 261.5t14.5 257.5q0 178 -24.5 335.5t-75.5 327.5q-27 88 -60 174t-78 166h187q35 -53 62.5 -111.5t51.5 -117.5q78 -190 118 -379.5t40 -394.5q0 -207 -40 -395.5t-118 -381.5q-25 -59 -52.5 -117.5t-61.5 -111.5h-187z" />
<glyph unicode="*" horiz-adv-x="866" d="M111 1415l49 150q53 -18 104 -38t103 -42q-8 55 -9.5 110.5t-3.5 110.5h158q-2 -55 -3 -110.5t-9 -110.5q51 23 102 42t105 38l49 -150q-53 -16 -107.5 -30.5t-107.5 -26.5q37 -41 71.5 -84t69.5 -88l-129 -92q-31 47 -61.5 93t-59.5 93q-27 -49 -58.5 -94t-62.5 -92 l-127 92q35 45 69 88t73 84q-53 12 -107.5 26.5t-107.5 30.5z" />
<glyph unicode="+" d="M88 510v152h322q18 0 41 -7q-6 20 -7 41v326h164v-326q0 -20 -6 -41q20 6 41 7h320v-152h-320q-20 0 -41 6q6 -23 6 -41v-325h-164v325q0 18 7 41q-23 -6 -41 -6h-322z" />
<glyph unicode="," horiz-adv-x="428" d="M111 0v231h206v-186q0 -66 -9 -118t-32.5 -94t-62.5 -75.5t-100 -62.5l-2 153q51 27 65 66t21 94q-12 -6 -21.5 -7t-21.5 -1h-43z" />
<glyph unicode="-" horiz-adv-x="626" d="M115 524v193h397v-193h-397z" />
<glyph unicode="." horiz-adv-x="428" d="M111 0v240h206v-240h-206z" />
<glyph unicode="/" horiz-adv-x="849" d="M84 -379l477 1960h201l-471 -1960h-207z" />
<glyph unicode="0" d="M125 438v643q0 47 3 98.5t12.5 100.5t28.5 96t50 84q55 66 139 93.5t168 27.5q86 0 167 -28.5t138 -94.5q37 -43 55.5 -93t26 -104.5t8.5 -110.5t1 -108v-596q0 -88 -12.5 -179t-69.5 -163t-140.5 -100.5t-173.5 -28.5q-98 0 -188 35t-145 121q-41 63 -54.5 148.5 t-13.5 158.5zM334 384.5q0 -28.5 3 -57t11 -56t23 -48.5q55 -76 151 -76q70 0 108 28t56.5 72t22.5 97t4 107v608v116.5t-15.5 113.5t-54.5 86t-117 34q-74 0 -112.5 -33t-57 -82t-20.5 -108.5t-2 -112.5v-635v-53.5z" />
<glyph unicode="1" d="M225 1161v154q57 2 104.5 15t88.5 54t56 91.5t15 105.5h189v-1581h-209v1124q0 20 6 43q-23 -6 -43 -6h-207z" />
<glyph unicode="2" d="M127 0v168l471 711q55 84 75.5 155.5t20.5 136.5q0 43 -5 84t-21.5 73t-48 52.5t-87.5 20.5q-63 0 -99 -24.5t-53.5 -64.5t-21.5 -89t-4 -101v-71h-204v39q0 39 2 85t8 92t18 90t35 77q55 82 143 114.5t185 32.5q190 0 278 -104.5t88 -288.5q0 -94 -19.5 -182t-72.5 -168 l-313 -482q-29 -43 -57.5 -85t-59.5 -83l2 -6q51 4 101.5 6t103.5 2h328v-190h-793z" />
<glyph unicode="3" d="M121 406v77h205v-51q0 -51 3 -101t20.5 -91t54 -67t104.5 -26q61 0 99 18.5t58.5 50.5t26.5 73t6 86v137q0 82 -24.5 124t-66.5 60.5t-98 19.5t-120 1v180q72 0 127 4t93 26.5t58.5 69.5t20.5 131l2 111q0 82 -39 126t-127 44q-61 0 -96 -24.5t-50.5 -64.5t-18.5 -88 t-3 -97v-52h-206v56q0 45 2 93t13 94t31.5 88t57.5 75q55 51 127 71.5t145 20.5q92 0 181.5 -34t138.5 -117q29 -49 37 -101.5t8 -109.5v-86q0 -27 -2 -52.5t-6 -52.5q-12 -90 -52 -136t-126 -75v-6q66 -29 104.5 -60.5t59 -73.5t26.5 -94.5t6 -119.5v-80q-2 -59 -9 -121.5 t-30 -109.5q-23 -49 -60.5 -83t-84.5 -54.5t-99.5 -30t-101.5 -9.5q-119 0 -195.5 28t-120.5 83t-61.5 135t-17.5 185z" />
<glyph unicode="4" d="M92 377v176l465 1028h234v-993q0 -20 -7 -41q20 6 41 6h136v-176h-136q-20 0 -41 6q6 -23 7 -41v-342h-209v342q0 18 6 41q-23 -6 -41 -6h-455zM272 549q31 2 60.5 3t60.5 1h150q16 0 26.5 -1t26.5 -5q-4 16 -5 26.5t-1 26.5v379q0 78 2 155.5t6 155.5l-10 2 q-35 -92 -71 -181t-75 -179q-41 -96 -80.5 -193.5t-89.5 -189.5z" />
<glyph unicode="5" d="M141 355.5v64.5v76h209v-68q0 -49 4 -99t21.5 -91t52.5 -67t96 -26q47 0 80 17.5t54.5 47.5t31.5 68.5t10 81.5v328q0 45 -5 87t-23.5 75t-51 52.5t-88.5 19.5q-90 0 -130 -50.5t-52 -134.5h-184l41 819h688v-188h-504q-4 -98 -10 -194.5t-23 -194.5l9 -4q47 61 102 89 t133 28t146.5 -35t109.5 -105q35 -61 43 -135t8 -141v-289q0 -190 -96 -301t-293 -111q-55 0 -108.5 12.5t-100.5 37t-84 63.5t-57 92q-12 33 -18.5 61.5t-8.5 56.5t-2 57.5z" />
<glyph unicode="6" d="M145 362v754q0 106 19.5 193.5t67 147t125 92t194.5 32.5q82 0 151.5 -23.5t118.5 -69.5t77 -111.5t28 -151.5v-54h-197v43q0 86 -41 140.5t-145 54.5q-86 0 -137.5 -47t-51.5 -135v-148q0 -39 -3 -76.5t-7 -76.5l8 -4q51 53 106.5 82.5t131.5 29.5t146.5 -28.5 t119.5 -87.5t60.5 -129t11.5 -144v-299q0 -176 -105.5 -273.5t-277.5 -97.5q-399 0 -400 387zM354 360q0 -90 41 -152.5t142 -62.5q100 0 141 62.5t41 152.5v295q0 92 -42 150.5t-140 58.5t-140.5 -58t-42.5 -151v-295z" />
<glyph unicode="7" d="M137 1366v190h789v-172q-59 -98 -111.5 -196t-93.5 -205q-94 -238 -148.5 -482.5t-76.5 -500.5h-224q23 248 80.5 485.5t145.5 468.5q35 92 72.5 169t68.5 132q37 66 70 117q-39 -4 -82 -5t-82 -1h-408z" />
<glyph unicode="8" d="M121 342v160q0 98 26.5 160.5t61.5 99.5q39 41 90 63q-94 57 -120.5 140.5t-26.5 189.5q0 94 20.5 173t65.5 135.5t115.5 87t168.5 30.5t169 -29.5t115 -84t65.5 -131t21.5 -171.5q0 -49 -5 -98t-19.5 -94t-42 -83t-72.5 -67q43 -16 77 -53q29 -31 54.5 -85t25.5 -140 v-201q0 -197 -100 -283t-291 -86q-184 0 -291.5 86t-107.5 281zM334 428q0 -49 3 -101.5t20.5 -93t53 -67.5t103.5 -27q70 0 107.5 29t55 73t19.5 98t2 107v68q0 43 -7 84t-27.5 72.5t-55.5 51t-90 19.5q-61 0 -97 -21.5t-55.5 -57t-25.5 -80.5t-6 -93v-61zM365 1161 q0 -47 2 -94t16 -85t47 -62.5t94 -24.5q63 0 96 28.5t46.5 71.5t13.5 92.5v92.5q0 41 -2 84t-15.5 76.5t-45 55t-91.5 21.5q-61 0 -94 -23.5t-48 -60.5t-17 -83t-2 -89z" />
<glyph unicode="9" d="M121 911v299q0 88 27.5 157t77.5 116t121 72.5t157 25.5q399 0 399 -387v-754q0 -109 -19.5 -194.5t-66.5 -145t-125 -92.5t-194 -33q-84 0 -153 24t-118 70t-76.5 111.5t-27.5 151.5v53h196v-43q0 -86 41 -140.5t146 -54.5q86 0 137 47.5t51 135.5v147q0 39 3 77t8 77 l-9 4q-51 -53 -106 -83t-131 -30t-146.5 29t-119.5 88t-60.5 129t-11.5 143zM330 901q0 -92 42 -150.5t140 -58.5t140 58.5t42 150.5v295q0 90 -41 152.5t-141 62.5t-141 -62.5t-41 -152.5v-295z" />
<glyph unicode=":" horiz-adv-x="483" d="M164 0v240h207v-240h-207zM164 776v240h207v-240h-207z" />
<glyph unicode=";" horiz-adv-x="483" d="M164 0v231h207v-186q0 -66 -9.5 -118t-33 -94t-62.5 -75.5t-100 -62.5l-2 153q51 27 65.5 66t20.5 94q-12 -6 -21.5 -7t-21.5 -1h-43zM164 776v240h207v-240h-207z" />
<glyph unicode="&#x3c;" d="M164 504v145l723 432v-170l-420 -243q-41 -23 -81 -45.5t-81 -42.5v-5q41 -20 81 -42.5t81 -45.5l420 -243v-170z" />
<glyph unicode="=" d="M88 342v152h875v-152h-875zM88 684v152h875v-152h-875z" />
<glyph unicode="&#x3e;" d="M164 82v170l422 244q41 23 82 45t82 43v4q-41 20 -82 42.5t-82 45.5l-422 244v170l723 -433v-145z" />
<glyph unicode="?" horiz-adv-x="878" d="M125 1128v95q0 84 16.5 153.5t54 118.5t100 76.5t155.5 27.5q104 0 167.5 -26.5t97.5 -74.5t44 -115.5t10 -151.5q0 -72 -7 -123t-21.5 -93t-37 -79t-53.5 -82l-78 -113q-35 -49 -50 -96t-15 -108v-191h-207v184q0 47 4 85t15.5 72t29 66.5t43.5 71.5l107 158 q37 55 52 97t15 110q0 35 2 77t-7 77.5t-33.5 60.5t-75.5 25q-41 0 -66 -12.5t-37 -35t-16 -53.5t-4 -65v-136h-205zM301 0v229h207v-229h-207z" />
<glyph unicode="@" horiz-adv-x="2265" d="M180 399q0 219 88 396.5t236.5 303.5t342 194.5t404.5 68.5q166 0 317.5 -49t266.5 -143.5t182.5 -230.5t67.5 -310q0 -145 -48 -261t-132 -198t-202 -126t-255 -44h-217l24 176q-20 -41 -53 -74.5t-72.5 -58.5t-85 -39t-90.5 -14q-74 0 -126 28.5t-83.5 75.5t-46 107.5 t-14.5 124.5q0 113 38 223t108.5 197.5t171 140.5t223.5 53q76 0 150.5 -12.5t146.5 -30.5l-105 -750h70q88 0 163.5 40t131 105.5t87.5 147.5t32 166q0 152 -51.5 266.5t-140.5 190.5t-212 113.5t-266 37.5q-164 0 -319.5 -60t-276.5 -166.5t-194.5 -252t-73.5 -315.5 q0 -344 175 -517t519 -173q51 0 110.5 3t119 10t115.5 20.5t103 33.5l33 -145q-51 -23 -116.5 -37t-135 -22.5t-137.5 -11.5t-123 -3q-199 0 -356.5 52.5t-267 155.5t-168 257t-58.5 356zM877 328q0 -37 5 -72t20.5 -60.5t43 -42t70.5 -16.5q70 0 117 33t77.5 83t47 109.5 t24.5 112.5l47 309q-29 6 -55.5 10.5t-54.5 4.5q-86 0 -149.5 -46t-106.5 -117t-64.5 -153t-21.5 -155z" />
<glyph unicode="A" horiz-adv-x="1026" d="M23 0l362 1581h283l333 -1581h-225l-92 489h-344l-96 -489h-221zM375 668q20 2 38.5 4t39.5 2h129q18 0 35.5 -2t33.5 -4q-25 82 -38 166t-29 167q-8 43 -16.5 95.5t-15.5 106.5t-13.5 106.5t-12.5 95.5h-10q-6 -43 -14 -95.5t-16.5 -106.5t-17.5 -106.5t-17 -95.5 q-16 -82 -33 -169t-43 -164z" />
<glyph unicode="B" horiz-adv-x="1134" d="M150 0v1581h440q209 0 298 -104.5t89 -307.5v-49q0 -100 -28.5 -156.5t-63.5 -84.5q-39 -35 -90 -45q61 -14 112 -58q41 -37 77 -109.5t36 -197.5v-55q0 -207 -98.5 -310.5t-323.5 -103.5h-448zM354 180q14 4 25.5 5t28.5 1h157q53 0 98.5 8.5t77 33t50 69.5t18.5 119v35 q0 49 -7 98t-28.5 88t-58.5 63.5t-99 24.5h-208q-16 0 -27.5 1t-26.5 5q4 -14 5 -25.5t1 -27.5v-445q0 -16 -1 -27t-5 -26zM354 901q14 4 25.5 5t28.5 1h163q45 0 82 11.5t61.5 38t38 71.5t13.5 113v28q0 80 -14.5 125t-43 67.5t-70.5 28t-95 5.5h-135q-16 0 -27.5 1 t-26.5 5q4 -14 5 -25.5t1 -27.5v-394q0 -16 -1 -27.5t-5 -25.5z" />
<glyph unicode="C" horiz-adv-x="1050" d="M123 549v514q0 111 13.5 209t57.5 172t128 118t225 44q119 0 197.5 -33t127 -91.5t69 -137t20.5 -173.5v-88h-213v82q0 47 -7.5 93.5t-29 83t-60.5 60t-102 23.5q-82 0 -126 -36.5t-63.5 -92t-22.5 -121t-3 -122.5v-666q0 -102 47 -166.5t160 -64.5q61 0 101 20.5 t63.5 55t33 79.5t9.5 95v81h213v-88q0 -96 -21.5 -174t-70 -133t-128 -86t-196.5 -31q-154 0 -239 45.5t-126 123t-49 182t-8 223.5z" />
<glyph unicode="D" horiz-adv-x="1159" d="M147 0v1581h451q98 0 196.5 -40t157.5 -122q29 -41 44.5 -88t23.5 -97t9 -101.5t1 -98.5v-506q0 -55 -2 -111.5t-13 -111.5t-34 -105t-63 -91q-66 -66 -145 -87.5t-171 -21.5h-455zM352 180q14 4 25.5 5t28.5 1h192q80 0 124 29t65.5 75t26.5 105.5t5 120.5v551 q0 63 -5 121.5t-26.5 104.5t-65.5 74t-124 28h-192q-16 0 -27.5 1t-26.5 5q4 -14 5 -25.5t1 -27.5v-1115q0 -16 -1 -27t-5 -26z" />
<glyph unicode="E" horiz-adv-x="976" d="M145 0v1581h740v-186h-494q-20 0 -41 6q6 -23 6 -41v-418q0 -20 -6 -41q20 6 41 6h457v-182h-457q-20 0 -41 6q6 -23 6 -41v-469q0 -20 -6 -41q20 6 41 6h494v-186h-740z" />
<glyph unicode="F" horiz-adv-x="917" d="M145 0v1581h717v-186h-471q-20 0 -41 6q6 -23 6 -41v-418q0 -20 -6 -41q20 6 41 6h416v-182h-416q-20 0 -41 6q6 -23 6 -41v-690h-211z" />
<glyph unicode="G" horiz-adv-x="1146" d="M125 567v514q0 119 20.5 215.5t70.5 165t137 106.5t220 38q229 0 334 -121t105 -332v-53h-211v53q0 55 -12.5 104.5t-39 86t-70.5 58t-108 21.5q-80 0 -126 -29.5t-70.5 -78.5t-31.5 -111.5t-7 -128.5v-481q0 -66 2 -141.5t22.5 -141t68.5 -109.5t138 -44q72 0 118 27.5 t71.5 72.5t36 102.5t10.5 118.5q0 18 -1 49t-1 64t1 62.5t7 45.5q-14 -4 -25.5 -5t-27.5 -1h-232v183h490v-877h-180v72q0 20 4 39.5t8 40.5l-10 2q-47 -90 -116 -134.5t-173 -44.5q-141 0 -224 50.5t-127 133.5t-57.5 189.5t-13.5 218.5z" />
<glyph unicode="H" horiz-adv-x="1206" d="M150 0v1581h210v-639q0 -20 -6 -41q20 6 41 6h416q18 0 41 -6q-6 20 -6 41v639h211v-1581h-211v690q0 18 6 41q-23 -6 -41 -6h-416q-20 0 -41 6q6 -23 6 -41v-690h-210z" />
<glyph unicode="I" horiz-adv-x="509" d="M150 0v1581h210v-1581h-210z" />
<glyph unicode="J" horiz-adv-x="937" d="M59 371v135h213v-107q0 -45 2 -88t16.5 -77.5t48.5 -56t97 -21.5q61 0 94 23.5t47.5 60t16.5 83t2 91.5v1167h211v-1167q0 -96 -14.5 -177t-55.5 -139.5t-112.5 -90.5t-186.5 -32q-117 0 -190.5 31t-115.5 84t-57.5 125t-15.5 156z" />
<glyph unicode="K" horiz-adv-x="1071" d="M145 0v1581h211v-451q0 -72 -2 -144.5t-6 -143.5l10 -2q98 193 209 374t221 367h244l-473 -764l494 -817h-250q-115 197 -227.5 389.5t-217.5 392.5l-10 -2q4 -72 6 -144.5t2 -143.5v-492h-211z" />
<glyph unicode="L" horiz-adv-x="921" d="M147 0v1581h211v-1360q0 -20 -6 -41q20 6 41 6h494v-186h-740z" />
<glyph unicode="M" horiz-adv-x="1646" d="M147 0v1581h324l268 -1008q23 -86 44.5 -171t39.5 -173h11q18 86 38.5 172t42.5 172l259 1008h323v-1581h-199v946q0 92 2.5 183.5t6.5 183.5l-13 2q-23 -106 -49 -212t-55 -212l-236 -891h-252l-245 893q-29 104 -55.5 209.5t-51.5 212.5l-12 -2q4 -86 6 -167t2 -167 v-979h-199z" />
<glyph unicode="N" horiz-adv-x="1245" d="M150 0v1581h260l344 -860q33 -84 54 -141.5t35.5 -103.5t26 -89t25.5 -100l10 4q-2 45 -3 99t-2 111.5t-2 112t-1 99.5v868h199v-1581h-260l-349 889q-37 94 -73.5 200.5t-63.5 235.5l-10 -2q2 -41 4 -92t3 -104.5t1 -104.5v-92v-930h-198z" />
<glyph unicode="O" horiz-adv-x="1134" d="M123 551v479q0 121 15.5 225.5t63.5 182.5t135 123t230 45t230.5 -45t135.5 -123t63.5 -182.5t15.5 -225.5v-479q0 -121 -15.5 -225.5t-63.5 -182t-135 -123t-231 -45.5q-143 0 -230 45.5t-135 123t-63.5 182t-15.5 225.5zM334 537q0 -63 4 -131t26.5 -123.5t69.5 -91 t133 -35.5t133.5 35.5t70 91t26.5 123t4 131.5v512q0 63 -4 129.5t-26.5 122t-70 90t-133.5 34.5t-133 -34.5t-69.5 -90t-26.5 -122t-4 -129.5v-512z" />
<glyph unicode="P" horiz-adv-x="1060" d="M150 0v1581h419q117 0 195 -29.5t125 -86t67.5 -139.5t20.5 -189v-37q0 -92 -20.5 -170t-68.5 -134.5t-125 -89t-188 -32.5h-165q-16 0 -27.5 1t-26.5 5q4 -14 5 -25.5t1 -27.5v-627h-212zM354 850q20 6 58 6h120q68 0 113 15.5t71.5 44t38 68.5t11.5 89v76q0 55 -8 101 t-30.5 78t-62.5 49.5t-106 17.5h-147q-20 0 -30.5 2t-27.5 6q4 -16 5 -26.5t1 -26.5v-447q0 -16 -1 -26.5t-5 -26.5z" />
<glyph unicode="Q" horiz-adv-x="1136" d="M123 551v479q0 121 15.5 225.5t63.5 182.5t135 123t230 45t230.5 -45t135.5 -123t63.5 -182.5t15.5 -225.5v-479q0 -57 -1 -117.5t-10.5 -119t-32 -111.5t-63.5 -99l117 -120l-117 -121l-145 147q-47 -18 -95.5 -26.5t-97.5 -8.5q-143 0 -230 45.5t-135 123t-63.5 182 t-15.5 225.5zM334 537q0 -63 4 -130t26.5 -122.5t69.5 -90t133 -34.5q12 0 25.5 2t25.5 4q-39 29 -70.5 61.5t-66.5 67.5l117 123q41 -41 79 -80t73 -86q37 61 44 138t7 147v512q0 63 -4 129.5t-26.5 122t-70 90t-133.5 34.5t-133 -34.5t-69.5 -90t-26.5 -122t-4 -129.5 v-512z" />
<glyph unicode="R" horiz-adv-x="1130" d="M145 0v1581h435q227 0 327.5 -101.5t100.5 -324.5q0 -61 -7.5 -118.5t-28 -106.5t-58 -90t-99.5 -68v-6q35 -16 61.5 -34.5t49.5 -49.5q37 -53 43 -118.5t10 -129.5l8 -123q4 -80 17.5 -159.5t48.5 -151.5h-228q-29 51 -38 120.5t-13 147.5l-4 111q-2 63 -9 120.5 t-28 100.5q-23 47 -65.5 70.5t-92.5 23.5h-151q-49 0 -74 6q4 -14 5 -25t1 -28v-647h-211zM350 868q14 4 25.5 5t27.5 1h183q63 0 105 20.5t66.5 56.5t34 85.5t9.5 106.5q0 82 -16.5 131t-48 75.5t-76 36t-99.5 9.5h-158q-16 0 -27 1t-26 5q4 -14 5 -25.5t1 -27.5v-426 q0 -16 -1 -27.5t-5 -26.5z" />
<glyph unicode="S" horiz-adv-x="1058" d="M96 412v73h215v-71q0 -51 11.5 -98.5t36 -82t65.5 -56t102 -21.5q111 0 167.5 56t56.5 191q0 66 -20.5 113t-70.5 92q-31 29 -64.5 52.5t-68.5 46.5l-151 100q-53 35 -98.5 75t-78 88t-51 109.5t-18.5 139.5q0 92 30.5 164.5t85 121.5t129.5 75t165 26q203 0 303 -107.5 t100 -300.5v-68h-213v68q0 45 -8 86t-28.5 73t-58.5 50t-95 18q-92 0 -145.5 -54t-53.5 -146q0 -55 19.5 -98.5t52 -78t72.5 -63.5t83 -55l90 -58q68 -43 123.5 -86t95 -95t62.5 -118.5t23 -158.5q0 -100 -25 -181t-77 -138.5t-134 -88.5t-199 -31q-113 0 -193.5 31 t-133 87.5t-78 137t-25.5 181.5z" />
<glyph unicode="T" horiz-adv-x="901" d="M37 1395v186h823v-186h-272q-20 0 -41 6q6 -23 6 -41v-1360h-211v1360q0 18 6 41q-23 -6 -41 -6h-270z" />
<glyph unicode="U" horiz-adv-x="1146" d="M127 492v1089h211v-971q0 -58 -1 -122v-12q0 -57 9 -111q16 -94 71.5 -150.5t155.5 -56.5q70 0 125.5 34.5t81.5 100.5q14 35 19.5 75t7.5 82q1 28 1 55v27q-1 40 -1 78v971h211v-1014v-114.5t-8 -114.5q-27 -186 -139.5 -274.5t-297.5 -88.5q-113 0 -213 40t-163 139 q-49 78 -59.5 162.5t-10.5 175.5z" />
<glyph unicode="V" horiz-adv-x="1087" d="M23 1581h219l209 -938q20 -92 37.5 -183t33.5 -184h10q18 92 38 182.5t42 182.5l230 940h221l-428 -1581h-234z" />
<glyph unicode="W" horiz-adv-x="1656" d="M27 1581h209l149 -907q16 -100 29.5 -199.5t25.5 -202.5l13 -2q16 100 32.5 199.5t36.5 200.5l180 911h242l164 -911q18 -100 33.5 -198.5t29.5 -199.5h13q14 100 30.5 198.5t34.5 199.5l170 911h209l-325 -1581h-246l-168 872q-18 98 -34.5 194.5t-31.5 195.5h-10 q-16 -98 -33.5 -194.5t-38.5 -195.5l-176 -872h-252z" />
<glyph unicode="X" d="M10 0l383 834l-356 747h239q63 -147 126 -293.5t118 -298.5h6q55 152 118 298.5t124 293.5h238l-359 -747l385 -834h-237q-72 162 -141.5 321.5t-133.5 325.5h-6q-61 -166 -132 -325.5t-142 -321.5h-230z" />
<glyph unicode="Y" horiz-adv-x="1103" d="M10 1581h230l206 -463q25 -57 48.5 -112.5t46.5 -114.5h8q23 57 46 113.5t50 111.5l215 465h230l-439 -893v-688h-211v676z" />
<glyph unicode="Z" horiz-adv-x="1087" d="M59 0v170l625 1073q25 41 49.5 81t50.5 81q-39 -2 -75.5 -3t-75.5 -1h-467v180h854v-156l-633 -1087q-23 -41 -48.5 -81t-49.5 -81q37 2 74.5 3t74.5 1h582v-180h-961z" />
<glyph unicode="[" horiz-adv-x="663" d="M145 -428v2007h420v-186h-174q-20 0 -41 6q6 -23 6 -41v-1565q0 -20 -6 -41q20 6 41 6h174v-186h-420z" />
<glyph unicode="\" horiz-adv-x="849" d="M84 1581h201l477 -1960h-207z" />
<glyph unicode="]" horiz-adv-x="663" d="M96 -242h174q18 0 41 -6q-6 20 -6 41v1565q0 18 6 41q-23 -6 -41 -6h-174v186h420v-2007h-420v186z" />
<glyph unicode="^" d="M76 791l379 790h139l379 -790h-142q-78 164 -156.5 325.5t-146.5 329.5h-8q-68 -168 -146.5 -330t-156.5 -325h-141z" />
<glyph unicode="_" horiz-adv-x="839" d="M0 -176h842v-152h-842v152z" />
<glyph unicode="`" horiz-adv-x="1024" d="M348 1614h227l101 -287h-162z" />
<glyph unicode="a" horiz-adv-x="911" d="M84 276v52q0 123 67.5 206.5t184.5 133.5l67 28q39 16 75 30.5t62.5 35t42 49.5t15.5 76q0 129 -139 129q-47 0 -78 -11.5t-47.5 -32t-22.5 -50t-6 -64.5v-47h-205v47q0 174 94.5 247t270.5 73q166 0 249 -72t83 -232v-780q0 -25 2 -48t12 -46h-195q-4 8 -6 16 q-4 20 -4 41q0 16 -1 23.5t3 13.5l-8 2q-20 -33 -53 -55q-29 -20 -73 -36.5t-105 -16.5q-59 0 -111.5 15t-91.5 50t-60.5 90.5t-21.5 132.5zM291 283q0 -68 38 -95.5t103 -27.5q78 0 119 49t41 127v192v27.5t1 17t3 16.5t4 27q-8 -6 -16 -14q-16 -12 -43 -24l-103 -48 q-57 -27 -102 -69.5t-45 -124.5v-53z" />
<glyph unicode="b" horiz-adv-x="966" d="M129 0v1581h207v-309q0 -53 -3 -108.5t-7 -108.5l8 -2q49 63 99 94t134 31q98 0 155.5 -35t87.5 -93.5t38 -132t8 -149.5v-385q0 -80 -10 -151.5t-42 -126t-89.5 -86t-151.5 -31.5q-78 0 -132 28.5t-101 89.5l-8 -2q10 -27 10 -51v-53h-203zM338 412q0 -43 3 -90.5 t18.5 -85t47 -62t87.5 -24.5q57 0 88.5 24.5t47 62t18.5 84t3 91.5v342q0 45 -3 91t-18.5 84t-47 62.5t-88.5 24.5q-55 0 -87 -24.5t-47.5 -62.5t-18.5 -85t-3 -90v-342z" />
<glyph unicode="c" horiz-adv-x="917" d="M109 381v356q0 94 11 175t49 140.5t108.5 92.5t191.5 33q188 0 271 -85t83 -241v-90h-198v57q0 37 -4.5 72t-19.5 62.5t-45 45t-81 17.5q-63 0 -97 -24.5t-48.5 -63.5t-15.5 -86t-1 -92v-347q0 -41 2 -88t16.5 -87t45.5 -65.5t88 -25.5t90 20.5t48 53.5t18.5 75t3.5 85 v80h200v-82q0 -100 -17 -174t-60 -123t-114 -73t-177 -24q-104 0 -172 29t-107 82t-54 128t-15 167z" />
<glyph unicode="d" horiz-adv-x="966" d="M106 383v369q0 82 6.5 164.5t57.5 152.5q43 59 98.5 84t126.5 25q84 0 133.5 -31t100.5 -94l10 2q-4 31 -6 51t-3 38.5t-2 39t-1 51.5v346h207v-1581h-201v49q0 25 10 55l-8 2q-49 -63 -101.5 -90.5t-136.5 -27.5q-92 0 -149.5 31.5t-89 86t-42 126t-10.5 151.5zM311 412 q0 -45 3 -91.5t18.5 -84t47.5 -62t89 -24.5q55 0 87 24.5t47 62t18.5 85t3.5 90.5v342q0 43 -3.5 90t-18.5 85t-47 62.5t-87 24.5q-57 0 -89 -24.5t-47.5 -62.5t-18.5 -84t-3 -91v-342z" />
<glyph unicode="e" horiz-adv-x="937" d="M102 391v367q0 94 15.5 171t56.5 132t111.5 86t181.5 31q104 0 176 -26t116 -75t63.5 -119.5t19.5 -158.5v-273h-488q-16 0 -27.5 1t-25.5 5q4 -10 4 -23v-30v-168q0 -76 41 -125t121 -49q55 0 88 17.5t51.5 47t24.5 66.5t6 76v47h205v-49q0 -170 -88 -268.5t-287 -98.5 q-111 0 -182.5 30t-111.5 84t-55.5 131t-15.5 171zM301 692q10 4 24.5 5t26.5 1h242q22 0 47 -6q-6 31 -6 60v49q0 43 -5 82t-22.5 68.5t-51.5 47t-89 17.5q-51 0 -83 -16.5t-49.5 -46t-23.5 -68.5t-6 -84v-49q-2 -10 -2 -21q-2 -10 -2 -20.5v-18.5z" />
<glyph unicode="f" horiz-adv-x="575" d="M43 983v170h94q23 0 45 -6q-6 27 -6 53v119q0 61 9.5 112.5t38 86t80.5 54t140 19.5q12 0 31 -1t35 -1q20 -2 39 -2v-172h-23q-10 0 -19 1t-15 1q-35 0 -56.5 -4t-34 -16.5t-16.5 -35t-4 -58.5v-103q0 -27 -6 -53q20 6 45 6h129v-170h-129q-25 0 -45 6q6 -23 6 -45v-944 h-205v944q0 23 6 45q-23 -6 -45 -6h-94z" />
<glyph unicode="g" horiz-adv-x="960" d="M106 391v385q0 55 2.5 116.5t22.5 115.5q35 90 99.5 130t158.5 40q84 0 141.5 -31t104.5 -98l8 4q-10 27 -10 49v51h196v-1077q0 -115 -9 -207t-47 -156.5t-111.5 -98.5t-202.5 -34q-176 0 -257 75t-81 222v47h190v-39q0 -63 32 -103t114 -40t125 47t43 127v104 q0 55 12 115l-10 2q-39 -66 -89.5 -97.5t-125.5 -31.5q-94 0 -153.5 29t-93.5 80t-46.5 120.5t-12.5 153.5zM311 377q0 -41 5.5 -78t22.5 -64.5t48 -45t80 -17.5t80 20.5t48 54.5t23.5 73.5t6.5 80.5v375q0 41 -4.5 84t-19.5 78t-47 56.5t-85 21.5t-84 -18.5t-47 -48 t-21.5 -69.5t-5.5 -83v-420z" />
<glyph unicode="h" horiz-adv-x="976" d="M131 0v1581h205v-362q0 -29 -1 -47.5t-2 -35t-3 -35t-4 -46.5l8 -4q98 127 252 127q129 0 199.5 -80t70.5 -203v-895h-205v799q0 41 -2 80t-15 69.5t-42 49t-82 18.5q-49 0 -83 -18.5t-53.5 -49t-28.5 -70.5t-9 -83v-795h-205z" />
<glyph unicode="i" horiz-adv-x="466" d="M131 0v1153h205v-1153h-205zM131 1354v227h205v-227h-205z" />
<glyph unicode="j" horiz-adv-x="464" d="M-31 -240q10 -2 21.5 -2h21.5q76 0 96.5 29t20.5 102v1264h205v-1253q0 -86 -8.5 -148.5t-37 -102.5t-83.5 -58.5t-150 -18.5h-43t-43 2v186zM129 1354v227h205v-227h-205z" />
<glyph unicode="k" horiz-adv-x="878" d="M127 0v1581h205v-655v-63.5t-1 -51.5t-3 -50.5t-4 -62.5l10 -2q61 119 128.5 230.5t137.5 226.5h225l-303 -494l338 -659h-225q-78 152 -156 302.5t-145 305.5l-10 -2q2 -31 4 -53.5t3 -41.5t1 -42v-55v-414h-205z" />
<glyph unicode="l" horiz-adv-x="466" d="M129 0v1581h205v-1581h-205z" />
<glyph unicode="m" horiz-adv-x="1443" d="M131 0v1153h197v-49q0 -25 -11 -55l9 -2q53 61 108 96t139 35t138.5 -38t91.5 -110q49 72 109.5 110t150.5 38q117 0 187.5 -68t70.5 -184v-926h-205v834q0 37 -4 69.5t-18.5 57t-40 40t-70.5 15.5q-80 0 -117 -60.5t-37 -152.5v-803h-204v817q0 37 -4.5 73t-18.5 63.5 t-40.5 45t-72.5 17.5q-45 0 -74.5 -18.5t-47 -49t-24.5 -70.5t-7 -83v-795h-205z" />
<glyph unicode="n" horiz-adv-x="976" d="M131 0v1153h199v-47q0 -16 -3 -28.5t-8 -26.5l9 -2q98 129 258 129q135 0 202.5 -80t67.5 -203v-895h-205v799q0 41 -2 80t-15 69.5t-42 49t-82 18.5q-49 0 -83 -18.5t-53.5 -49t-28.5 -70.5t-9 -83v-795h-205z" />
<glyph unicode="o" horiz-adv-x="962" d="M111 377v399q0 195 84 298.5t286 103.5q106 0 177 -27t114 -78t61.5 -126t18.5 -171v-399q0 -195 -84 -298.5t-287 -103.5q-106 0 -177 27t-114 77t-61 125t-18 173zM315 360q0 -45 5.5 -84.5t22.5 -70.5t50 -49.5t88 -18.5t88 18.5t50.5 49.5t21.5 71.5t4 83.5v433 q0 43 -5 84t-21.5 71.5t-49 49t-88.5 18.5q-57 0 -90 -18.5t-50 -49t-21.5 -70.5t-4.5 -85v-433z" />
<glyph unicode="p" horiz-adv-x="966" d="M129 -428v1581h203v-49q0 -25 -10 -55l8 -2q47 63 101 97t134 34q92 0 149.5 -32t89.5 -86t42 -126t10 -152v-381q0 -78 -8 -153.5t-38 -136t-87 -98.5t-156 -38q-41 0 -73.5 4.5t-60 16.5t-51.5 32.5t-48 51.5l-8 -2q4 -53 7 -98.5t3 -98.5v-309h-207zM338 399 q0 -43 3 -90t18.5 -85t47 -62.5t87.5 -24.5q57 0 88.5 24.5t47 62.5t18.5 84t3 91v355q0 45 -3 91t-18.5 84t-47 62.5t-88.5 24.5q-55 0 -87 -24.5t-47.5 -62.5t-18.5 -85t-3 -90v-355z" />
<glyph unicode="q" horiz-adv-x="966" d="M106 401v381q0 80 10.5 152t42 126t89 86t151.5 32q82 0 134.5 -35t101.5 -96l8 2q-10 27 -10 51v53h201v-1581h-207v305q0 61 3 111.5t9 109.5l-10 2q-51 -63 -100.5 -94t-133.5 -31q-98 0 -155.5 38t-87 98.5t-38 136.5t-8.5 153zM311 399q0 -45 3 -91t18.5 -84 t47.5 -62.5t89 -24.5q55 0 87 24.5t47 62.5t18.5 85t3.5 90v355q0 43 -3.5 90t-18.5 85t-47 62.5t-87 24.5q-57 0 -89 -24.5t-47.5 -62.5t-18.5 -84t-3 -91v-355z" />
<glyph unicode="r" horiz-adv-x="630" d="M129 0v1153h193v-68q0 -35 -11 -79l8 -2q20 43 41 74.5t45.5 54t58.5 34t83 11.5q10 0 19 -1t18 -1q8 -2 18 -2v-183q-80 0 -132 -14t-83 -48t-42 -87.5t-11 -132.5v-709h-205z" />
<glyph unicode="s" horiz-adv-x="882" d="M86 322v59h193v-41q0 -39 4 -76t19 -64.5t47 -45t87 -17.5q72 0 110 45t38 117q0 43 -17.5 77t-47.5 61.5t-67.5 52t-78.5 49.5l-84 51q-76 47 -128 114.5t-52 178.5q0 76 25.5 131t70.5 92t105.5 54.5t131.5 17.5q324 0 324 -312v-61h-195v39q0 33 -4 64.5t-17 56 t-40 39t-70 14.5q-57 0 -93 -33t-36 -92q0 -37 14.5 -63.5t36 -48t49 -39t56.5 -33.5l90 -56q49 -31 91 -63.5t73 -74.5t49 -94t18 -120q0 -160 -93 -243t-263 -83q-98 0 -164.5 24t-106.5 68t-57.5 108.5t-17.5 146.5z" />
<glyph unicode="t" horiz-adv-x="620" d="M45 983v170h94q23 0 45 -6q-6 20 -6 45v258h205v-258q0 -25 -6 -45q20 6 45 6h147v-170h-147q-25 0 -45 6q6 -29 6 -53v-637q0 -66 17.5 -98.5t84.5 -32.5q16 0 33 1t27 3l24 4v-178q-27 -2 -49 -4q-23 -2 -45 -3t-39 -1q-76 0 -126 17.5t-78.5 52t-41 88t-12.5 124.5 v672q0 23 6 45q-23 -6 -45 -6h-94z" />
<glyph unicode="u" horiz-adv-x="976" d="M121 258v895h205v-799q0 -41 2 -79.5t15 -69.5t42 -49.5t82 -18.5q49 0 83 18.5t53.5 49.5t28.5 70.5t9 82.5v795h205v-1153h-199v47q0 16 3 28.5t7 26.5l-8 2q-98 -129 -258 -129q-127 0 -198.5 80t-71.5 203z" />
<glyph unicode="v" horiz-adv-x="849" d="M27 1153h211q47 -223 94 -441t84 -442h12q37 223 87 442.5t99 440.5h209l-301 -1153h-203z" />
<glyph unicode="w" horiz-adv-x="1312" d="M29 1153h204q35 -213 71 -423t63 -425h12q35 215 80 425t90 423h205q43 -209 85 -415t76 -416h13q31 211 69.5 416.5t79.5 414.5h205l-252 -1153h-207q-45 223 -89 442.5t-79 442.5h-12q-37 -223 -84 -442.5t-94 -442.5h-201z" />
<glyph unicode="x" horiz-adv-x="872" d="M12 0l312 596l-287 557h227q45 -100 89 -199.5t81 -203.5h8q35 104 78 203.5t86 199.5h225l-280 -557l305 -596h-233q-47 111 -94.5 219.5t-86.5 220.5h-8q-43 -113 -91 -221t-97 -219h-234z" />
<glyph unicode="y" horiz-adv-x="845" d="M27 1153h213q47 -215 95 -426t87 -428h12q35 217 80 428t92 426h213l-348 -1339q-18 -72 -44 -118t-63.5 -72.5t-90 -38t-123.5 -11.5h-25q-10 0 -21 -1h-6q-7 0 -12 1v176q4 -2 9 -1t9 1h11q55 0 91 16.5t52 73.5l57 197z" />
<glyph unicode="z" horiz-adv-x="829" d="M43 0v152l381 661q25 41 39 63.5t24.5 38t20.5 26.5t22 32q-37 -2 -79.5 -3t-79.5 -1h-256v184h647v-145l-377 -668q-23 -41 -46.5 -81t-47.5 -79q37 2 73.5 3t73.5 1h324v-184h-719z" />
<glyph unicode="{" horiz-adv-x="724" d="M117 508v133q80 29 99.5 84t19.5 133v371q0 27 2 61.5t7 68.5t14 65.5t26 56.5q37 55 106.5 77.5t132.5 22.5h105v-162q-113 0 -158 -42t-45 -154v-373q0 -104 -34 -168t-134 -104v-7q100 -41 134 -104.5t34 -167.5v-373q0 -57 10 -95t35 -60.5t63.5 -31.5t94.5 -9v-162 h-105q-63 0 -131.5 22.5t-107.5 77.5q-16 25 -25.5 56.5t-14.5 65.5t-7 67.5t-2 62.5v371q0 78 -19.5 133t-99.5 84z" />
<glyph unicode="|" horiz-adv-x="493" d="M174 -475v2056h145v-2056h-145z" />
<glyph unicode="}" horiz-adv-x="724" d="M96 -270q55 0 94 9t64 31.5t35 60.5t10 95v373q0 104 34 167.5t134 104.5v7q-100 41 -134 104t-34 168v373q0 113 -45 154.5t-158 41.5v162h105q63 0 132.5 -22.5t106.5 -77.5q16 -25 25.5 -56.5t14.5 -65.5t7 -69t2 -61v-371q0 -78 19.5 -133t99.5 -84v-133 q-80 -29 -99.5 -84t-19.5 -133v-371q0 -29 -2 -62.5t-7 -67.5t-14 -65.5t-26 -56.5q-39 -55 -107.5 -77.5t-131.5 -22.5h-105v162z" />
<glyph unicode="~" d="M74 528q39 53 80 95q35 35 78.5 65.5t86.5 30.5q55 0 104.5 -18.5t97.5 -40t94.5 -39t95.5 -17.5q35 0 69.5 18.5t63.5 41.5q33 25 63 59l72 -86q-41 -51 -84 -90q-37 -35 -83 -62.5t-89 -27.5q-41 0 -90 17.5t-101.5 39t-103.5 39.5t-94 18q-35 0 -66.5 -18t-56.5 -41 q-29 -27 -55 -59z" />
<glyph unicode="&#xa1;" horiz-adv-x="548" d="M141 254q0 55 3 94t8 94l20 375h154l16 -379q4 -55 6 -94t2 -94v-678h-209v682zM141 920v233h209v-233h-209z" />
<glyph unicode="&#xa2;" horiz-adv-x="944" d="M127 584v356q0 86 9 160t38 130t82 94t143 50v180h160v-178q150 -16 216.5 -98t66.5 -223v-90h-199v57q0 37 -4 71.5t-19.5 62.5t-45 45.5t-80.5 17.5q-63 0 -97.5 -25t-48.5 -63.5t-15 -86t-1 -92.5v-346q0 -41 2 -88t16.5 -87t45 -65.5t87.5 -25.5t90 20.5t48.5 53 t18.5 74.5t3 85v80h201v-82q0 -178 -61.5 -274t-223.5 -115v-182h-160v182q-80 10 -133 43t-83.5 85t-43 121t-12.5 153z" />
<glyph unicode="&#xa3;" d="M72 193q0 86 56 141t142 55q31 0 58.5 -10t56.5 -23q-4 18 -5 35t-1 35q-2 70 -16.5 141.5t-32.5 137.5h-193v176h99q16 0 30.5 -1t30.5 -3q-23 86 -43.5 173t-20.5 175q0 174 93.5 271t269.5 97q100 0 166.5 -27.5t104.5 -77.5t53.5 -120t15.5 -156v-73h-211v63 q0 39 -3 77t-16.5 68.5t-41 50t-78.5 19.5q-78 0 -113 -52t-35 -124q0 -90 19.5 -182t42.5 -178h237v-176h-137q-29 0 -49 4l-16 4q16 -74 31.5 -152t15.5 -155q0 -35 -4.5 -68t-10.5 -68q29 -25 68 -54.5t80 -29.5q23 0 36 14.5t21 36t10 47t2 50.5v51h207v-78 q0 -66 -11 -124t-40 -102t-77 -70.5t-122 -26.5q-78 0 -135 28.5t-112 81.5q-51 -47 -99.5 -75.5t-120.5 -28.5q-92 0 -147 55t-55 148zM217 190q0 -23 12.5 -40t44.5 -17q35 0 50.5 22.5t29.5 47.5q-10 10 -22 18q-10 8 -25.5 14.5t-32.5 6.5q-23 0 -40 -14.5t-17 -37.5z " />
<glyph unicode="&#xa4;" d="M74 451l137 137q-59 94 -59 200t59 203l-137 137l110 113l138 -137q47 29 96 44t106 15q106 0 203 -59l137 137l113 -113l-137 -135q59 -96 59 -205q0 -106 -59 -202l137 -135l-113 -113l-137 137q-47 -29 -96 -44t-105 -15q-57 0 -106 15t-98 44l-138 -137zM299 791 q0 -47 18.5 -88t49 -72t71.5 -49.5t88 -18.5q45 0 86 17.5t72 48t49.5 71.5t18.5 88t-17.5 88.5t-48.5 72t-72 49t-88 18.5t-88 -17.5t-71.5 -48t-49 -71.5t-18.5 -88z" />
<glyph unicode="&#xa5;" d="M29 1559h229l176 -441q35 -90 52.5 -156.5t23.5 -111.5q8 -53 6 -90h14q2 49 11 104q8 47 24.5 110.5t44.5 135.5l187 449h229l-299 -693h229v-151h-303l-24 -49v-121h307v-152h-307v-393h-211v393h-307v152h307v108l-31 62h-297v151h225z" />
<glyph unicode="&#xa6;" horiz-adv-x="493" d="M174 315h145v-790h-145v790zM174 791v790h145v-790h-145z" />
<glyph unicode="&#xa7;" d="M88 711q0 57 12.5 101t36 82t55 72.5t70.5 71.5q-41 53 -72.5 119t-31.5 131q0 84 29.5 143.5t82 98.5t122 56.5t149.5 17.5q193 0 286 -94.5t93 -260.5v-71h-213v63q0 37 -10.5 69.5t-31 59.5t-54 42t-79.5 15q-78 0 -120.5 -33.5t-42.5 -97.5q0 -49 18.5 -85.5 t48 -66.5t66.5 -55.5t73 -50.5l187 -125q92 -59 142 -135.5t50 -191.5q0 -106 -40 -189.5t-107 -163.5q51 -55 78.5 -111t27.5 -132q0 -172 -99 -269.5t-292 -97.5q-219 0 -312 100.5t-93 282.5v96h215v-84q0 -41 8 -80.5t28.5 -70.5t56.5 -49.5t93 -18.5q86 0 134 47.5 t48 124.5q0 59 -24.5 100.5t-60 71t-73.5 50t-63 36.5l-217 150q-92 66 -133 141.5t-41 190.5zM297 725q0 -51 19.5 -90t50 -69.5t68.5 -56.5t75 -50l55 -37q23 -16 47.5 -32.5t44.5 -27.5q37 47 62.5 99.5t25.5 113.5q0 51 -21.5 89t-55 68t-73.5 54.5t-77 49.5 q-25 16 -47 32q-20 14 -41.5 28.5t-38.5 25.5q-35 -41 -64.5 -90.5t-29.5 -106.5z" />
<glyph unicode="&#xa8;" horiz-adv-x="1024" d="M238 1348v233h190v-233h-190zM596 1348v233h190v-233h-190z" />
<glyph unicode="&#xa9;" horiz-adv-x="1505" d="M0 791q0 168 48 316t143.5 259t236.5 175.5t326 64.5q180 0 320 -64.5t235.5 -175.5t145.5 -259t50 -316t-48 -316.5t-142 -259.5t-235.5 -175.5t-325.5 -64.5t-325.5 63.5t-237 174.5t-143.5 259.5t-48 318.5zM123 791q0 -143 39 -270.5t116.5 -222.5t195.5 -150.5 t278 -55.5t278.5 55.5t196.5 150.5t115.5 222.5t37.5 270.5t-38.5 271t-117.5 223t-197 150.5t-275 55.5q-160 0 -278 -55.5t-195.5 -150.5t-116.5 -223t-39 -271zM467 653v285q0 76 9 140.5t39 111.5t87 73.5t154 26.5q150 0 216 -67.5t66 -192.5v-72h-157v46 q0 29 -3.5 57.5t-15.5 51t-36.5 35.5t-65.5 13q-51 0 -78 -19.5t-38 -50t-12 -68.5t-1 -75v-276q0 -33 2 -71t12 -69.5t35 -52t72 -20.5q45 0 71.5 16.5t38.5 43t15.5 59t3.5 67.5v64h159v-66q0 -80 -13 -138.5t-47 -97t-89 -58t-141 -19.5q-84 0 -138.5 22.5t-87 65.5 t-45 102.5t-12.5 132.5z" />
<glyph unicode="&#xaa;" horiz-adv-x="559" d="M33 606v131h499v-131h-499zM45 1087q0 57 12.5 94.5t38 62t63.5 39.5t89 34q20 6 39.5 13t35 16.5t25.5 26t10 40.5q0 39 -14 59.5t-55 20.5q-33 0 -49.5 -11.5t-23.5 -29.5t-7 -42v-50h-135v39q0 113 55 159t164 46q96 0 150.5 -41t54.5 -144v-463q0 -16 6 -32.5 t12 -30.5h-149q0 4 -1 10t-1 10q0 12 6 25l-6 2q-29 -35 -59 -48t-75 -13q-98 0 -142 58t-44 150zM188 1090q0 -39 14.5 -70t59.5 -31q49 0 68.5 29t23.5 68.5t3.5 83.5t7.5 75q-16 -6 -42 -15t-50.5 -20.5t-46 -27t-29.5 -33.5q-6 -14 -7.5 -28.5t-1.5 -30.5z" />
<glyph unicode="&#xab;" horiz-adv-x="933" d="M117 449v249l305 328v-285q-47 -41 -93 -85t-98 -78q12 -8 24.5 -16.5t23.5 -18.5l143 -133v-279zM526 459v235l308 328v-281l-144 -129q-20 -20 -41 -30q10 -8 20.5 -15.5t20.5 -17.5l144 -135v-285z" />
<glyph unicode="&#xac;" d="M94 510v152h862v-539h-159v352q0 18 6 41q-23 -6 -41 -6h-668z" />
<glyph unicode="&#xad;" horiz-adv-x="626" d="M115 524v193h397v-193h-397z" />
<glyph unicode="&#xae;" horiz-adv-x="1505" d="M0 791q0 168 48 316t143.5 259t236.5 175.5t326 64.5q180 0 320 -64.5t235.5 -175.5t145.5 -259t50 -316t-48 -316.5t-142 -259.5t-235.5 -175.5t-325.5 -64.5t-325.5 63.5t-237 174.5t-143.5 259.5t-48 318.5zM123 791q0 -143 39 -270.5t116.5 -222.5t195.5 -150.5 t278 -55.5t278.5 55.5t196.5 150.5t115.5 222.5t37.5 270.5t-38.5 271t-117.5 223t-197 150.5t-275 55.5q-160 0 -278 -55.5t-195.5 -150.5t-116.5 -223t-39 -271zM469 365v901h295q133 0 203.5 -56.5t70.5 -191.5q0 -66 -20.5 -124t-85.5 -87v-6q31 -16 48 -34.5 t25.5 -41.5t10.5 -49.5t4 -59.5q4 -63 11 -129.5t40 -121.5h-176q-25 43 -28 107.5t-8 124.5t-24.5 102t-80.5 42h-70q-33 0 -57 9q4 -16 5 -26.5t1 -27.5v-331h-164zM627 874q16 4 31.5 6.5t31.5 2.5h68q25 0 46 3t37.5 15t26 37t9.5 66q0 78 -32 98t-79 20h-66 q-41 0 -73 8q6 -23 6 -45v-165q0 -25 -6 -46z" />
<glyph unicode="&#xaf;" horiz-adv-x="1024" d="M262 1415v146h500v-146h-500z" />
<glyph unicode="&#xb0;" horiz-adv-x="839" d="M102 1298q0 68 25 124.5t68 97.5t101 63.5t124 22.5t124 -22.5t101 -63.5t67.5 -97.5t24.5 -124.5t-24.5 -124t-67.5 -97t-101.5 -63.5t-123.5 -22.5q-66 0 -124 22.5t-101 63.5t-68 97.5t-25 123.5zM264 1298q0 -66 44 -112.5t112 -46.5t111.5 47t43.5 112 q0 66 -43.5 113t-111.5 47t-112 -47t-44 -113z" />
<glyph unicode="&#xb1;" d="M88 0v152h875v-152h-875zM98 563v152h312q18 0 41 -6q-6 20 -7 41v272h160v-272q0 -20 -6 -41q20 6 41 6h313v-152h-313q-20 0 -41 6q6 -23 6 -41v-252h-160v252q0 18 7 41q-23 -6 -41 -6h-312z" />
<glyph unicode="&#xb2;" horiz-adv-x="735" d="M115 623v108l284 412q23 31 44.5 85t21.5 93q0 53 -16.5 91t-77.5 38q-37 0 -57.5 -13.5t-31 -36t-12.5 -51t-2 -59.5v-30h-139v34q0 129 53.5 203t194.5 74q117 0 175 -61.5t58 -178.5q0 -59 -13 -110.5t-46 -100.5l-135 -202q-29 -45 -59.5 -87.5t-63.5 -82.5l2 -5 q63 6 129 7h194v-127h-503z" />
<glyph unicode="&#xb3;" horiz-adv-x="735" d="M111 897v39h143v-37q0 -31 1 -61.5t10 -56t29.5 -41t61.5 -15.5q45 0 67.5 16.5t32 42t9.5 59.5v68v25q0 47 -16.5 70.5t-44 33t-61.5 9.5h-69v120q39 0 73 1t57.5 12.5t38 38t14.5 75.5v56q2 102 -92 102q-37 0 -55.5 -14.5t-28 -37t-10.5 -51t-1 -57.5v-24h-143v33 q0 129 52 198.5t188 69.5q111 0 171 -54.5t60 -166.5q0 -41 -1 -76t-10 -64.5t-30.5 -53t-60.5 -42.5v-4q70 -35 89 -78t19 -117q0 -43 -2 -100t-22 -98q-29 -61 -92.5 -85t-127.5 -24q-63 0 -125.5 21.5t-95.5 81.5q-23 41 -25.5 90t-2.5 96z" />
<glyph unicode="&#xb4;" horiz-adv-x="1024" d="M348 1323l101 287h227l-166 -287h-162z" />
<glyph unicode="&#xb5;" horiz-adv-x="993" d="M131 -475v1628h213v-799q0 -41 2 -79.5t15.5 -69.5t42 -49.5t81.5 -18.5q49 0 82 18.5t53.5 49.5t28.5 70.5t8 82.5v795h205v-1153h-198v47q0 16 3 28.5t7 26.5l-8 2q-23 -29 -44.5 -51t-44 -37.5t-50 -24.5t-64.5 -9q-31 0 -76 14t-65 37l-9 -4q6 -43 10.5 -71 t5.5 -52.5t2 -52t1 -70.5v-258h-201z" />
<glyph unicode="&#xb6;" horiz-adv-x="1312" d="M59 1184q0 115 53.5 205t157.5 139q72 35 153 44t159 9h665v-127h-135q-16 0 -27.5 1t-25.5 5q4 -14 5 -25.5t1 -27.5v-1833h-170v1833q0 16 1 27.5t5 25.5q-14 -4 -25.5 -5t-27.5 -1h-88q-16 0 -27.5 1t-25.5 5q4 -14 5 -25.5t1 -27.5v-1833h-170v1171q0 27 6 56 q-10 -2 -20.5 -4t-20.5 -2q-92 0 -173 23.5t-142.5 71.5t-97.5 121.5t-36 172.5z" />
<glyph unicode="&#xb7;" horiz-adv-x="428" d="M111 504v239h206v-239h-206z" />
<glyph unicode="&#xb8;" horiz-adv-x="1024" d="M332 -420l18 105q14 -4 27 -7q20 -6 47 -6q16 0 35.5 3t36 11.5t28 23t11.5 36.5q0 84 -99 84q-10 0 -25.5 -1t-25.5 -3l41 174h119l-23 -88h19q74 0 112.5 -45t38.5 -111q0 -86 -59.5 -140t-159.5 -54q-35 0 -60.5 2t-43.5 6q-23 4 -37 10z" />
<glyph unicode="&#xb9;" horiz-adv-x="735" d="M201 1309v106q82 0 123 37t41 119h131v-948h-144v649q0 20 6 43q-23 -6 -43 -6h-114z" />
<glyph unicode="&#xba;" horiz-adv-x="591" d="M45 606v131h500v-131h-500zM59 1120v236q0 123 55.5 183t180.5 60q123 0 179 -60t56 -183v-236q0 -123 -55 -184.5t-180 -61.5t-180.5 61.5t-55.5 184.5zM201 1122q0 -25 3 -49t12 -43.5t27.5 -32t49.5 -12.5t50 11.5t28.5 31t12.5 44t3 50.5v232q0 27 -3 51.5 t-12.5 42.5t-28.5 29.5t-50 11.5t-49.5 -11.5t-27.5 -31t-12 -44t-3 -48.5v-232z" />
<glyph unicode="&#xbb;" horiz-adv-x="933" d="M111 129v285l143 135q10 10 20.5 17t20.5 16q-12 6 -22.5 13t-20.5 17l-141 129v281l305 -328v-235zM516 131v279l143 133q10 10 22.5 18t25.5 17q-51 35 -97.5 78.5t-93.5 84.5v285l305 -328v-249z" />
<glyph unicode="&#xbc;" horiz-adv-x="1871" d="M213 1309v106q82 0 123 37t41 119h131v-948h-143v649q0 20 6 43q-23 -6 -43 -6h-115zM569 0l549 1556h135l-548 -1556h-136zM1096 223v115l329 610h156v-569q0 -20 -6 -41q20 6 41 6h90v-121h-90q-20 0 -41 6q6 -23 6 -41v-188h-143v188q0 10 1 20.5t3 20.5 q-18 -6 -39 -6h-307zM1225 340q16 2 34.5 3t34.5 1h113q18 0 41 -6q-6 20 -6 43v176q0 47 2 91t6 89l-10 2q-18 -51 -44 -102t-55.5 -100.5t-60.5 -98.5t-55 -98z" />
<glyph unicode="&#xbd;" horiz-adv-x="1871" d="M182 1309v106q82 0 123 37t41 119h131v-948h-143v649q0 20 6 43q-23 -6 -43 -6h-115zM500 0l549 1556h135l-551 -1556h-133zM1128 0v109l285 411q23 31 44.5 85t21.5 93q0 53 -16.5 91t-78.5 38q-37 0 -57 -13t-30.5 -35.5t-12.5 -51.5t-2 -59v-31h-139v35 q0 129 53 202.5t195 73.5q117 0 175 -61.5t58 -177.5q0 -59 -13.5 -110.5t-45.5 -100.5l-135 -203q-29 -45 -60 -87t-63 -83l2 -4q63 6 129 6h194v-127h-504z" />
<glyph unicode="&#xbe;" horiz-adv-x="1871" d="M166 897v39h143v-37q0 -31 1 -61.5t10.5 -56t30 -41t61.5 -15.5q45 0 67.5 16.5t31.5 42t9 59.5v68v25q0 47 -16.5 70.5t-43 33t-61 9.5h-69.5v120q39 0 72.5 1t57 12.5t38 38t14.5 75.5l2 56q0 102 -94 102q-37 0 -55.5 -14.5t-26.5 -37t-9 -51t-1 -57.5v-24h-146v33 q0 129 52.5 198.5t187.5 69.5q111 0 171 -54.5t60 -166.5q0 -41 -1 -76t-10 -64.5t-30.5 -53t-60.5 -42.5v-4q70 -35 89 -78t19 -117q0 -43 -2 -100t-22 -98q-29 -61 -92.5 -85t-126.5 -24t-125 21.5t-96 81.5q-23 41 -26 90t-3 96zM633 0l549 1556h135l-549 -1556h-135z M1135 223v115l329 610h156v-569q0 -20 -6 -41q20 6 41 6h90v-121h-90q-20 0 -41 6q6 -23 6 -41v-188h-143v188q0 10 1 20.5t3 20.5q-18 -6 -39 -6h-307zM1264 340q18 2 35.5 3t33.5 1h113q23 0 41 -6q-6 20 -6 43v176q0 47 2 91t6 89l-10 2q-18 -51 -44 -102t-55.5 -100.5 t-60.5 -98.5t-55 -98z" />
<glyph unicode="&#xbf;" horiz-adv-x="878" d="M109 -78q0 92 11 150.5t34.5 108.5t60.5 101.5t90 129.5q35 51 50.5 97t15.5 107v191h207v-184q0 -47 -4.5 -85t-15.5 -72t-28.5 -66.5t-44.5 -71.5l-108 -158q-39 -55 -53.5 -98t-14.5 -109v-69q0 -31 3 -62t15.5 -54.5t35 -38.5t63.5 -15t65.5 12t37 33.5t16.5 52.5 t4 65v138h205v-115q0 -86 -15.5 -151.5t-53.5 -111.5t-100.5 -69.5t-156.5 -23.5q-104 0 -167.5 26.5t-97.5 74.5t-44 115.5t-10 151.5zM371 924v229h207v-229h-207z" />
<glyph unicode="&#xc0;" horiz-adv-x="1026" d="M23 0l362 1581h283l333 -1581h-225l-92 489h-344l-96 -489h-221zM291 2009h227l100 -287h-161zM375 668q20 2 38.5 4t39.5 2h129q18 0 35.5 -2t33.5 -4q-25 82 -38 166t-29 167q-8 43 -16.5 95.5t-15.5 106.5t-13.5 106.5t-12.5 95.5h-10q-6 -43 -14 -95.5t-16.5 -106.5 t-17.5 -106.5t-17 -95.5q-16 -82 -33 -169t-43 -164z" />
<glyph unicode="&#xc1;" horiz-adv-x="1026" d="M23 0l362 1581h283l333 -1581h-225l-92 489h-344l-96 -489h-221zM375 668q20 2 38.5 4t39.5 2h129q18 0 35.5 -2t33.5 -4q-25 82 -38 166t-29 167q-8 43 -16.5 95.5t-15.5 106.5t-13.5 106.5t-12.5 95.5h-10q-6 -43 -14 -95.5t-16.5 -106.5t-17.5 -106.5t-17 -95.5 q-16 -82 -33 -169t-43 -164zM414 1718l100 287h227l-166 -287h-161z" />
<glyph unicode="&#xc2;" horiz-adv-x="1026" d="M23 0l362 1581h283l333 -1581h-225l-92 489h-344l-96 -489h-221zM223 1712l170 283h273l174 -283h-181q-33 47 -63.5 93t-58.5 96q-29 -49 -60 -95.5t-65 -93.5h-189zM375 668q20 2 38.5 4t39.5 2h129q18 0 35.5 -2t33.5 -4q-25 82 -38 166t-29 167q-8 43 -16.5 95.5 t-15.5 106.5t-13.5 106.5t-12.5 95.5h-10q-6 -43 -14 -95.5t-16.5 -106.5t-17.5 -106.5t-17 -95.5q-16 -82 -33 -169t-43 -164z" />
<glyph unicode="&#xc3;" horiz-adv-x="1026" d="M23 0l362 1581h283l333 -1581h-225l-92 489h-344l-96 -489h-221zM205 1841q43 49 91 94t120 45q41 0 72.5 -11t43.5 -17q27 -12 54.5 -25.5t56.5 -13.5q37 0 59.5 17.5t57.5 56.5l104 -82q-45 -61 -92 -108.5t-119 -47.5v-2q-23 0 -50.5 6t-72.5 25q-27 12 -54 23t-56 11 q-33 0 -53.5 -15t-55.5 -48zM375 668q20 2 38.5 4t39.5 2h129q18 0 35.5 -2t33.5 -4q-25 82 -38 166t-29 167q-8 43 -16.5 95.5t-15.5 106.5t-13.5 106.5t-12.5 95.5h-10q-6 -43 -14 -95.5t-16.5 -106.5t-17.5 -106.5t-17 -95.5q-16 -82 -33 -169t-43 -164z" />
<glyph unicode="&#xc4;" horiz-adv-x="1026" d="M23 0l362 1581h283l333 -1581h-225l-92 489h-344l-96 -489h-221zM254 1745v233h190v-233h-190zM375 668q20 2 38.5 4t39.5 2h129q18 0 35.5 -2t33.5 -4q-25 82 -38 166t-29 167q-8 43 -16.5 95.5t-15.5 106.5t-13.5 106.5t-12.5 95.5h-10q-6 -43 -14 -95.5t-16.5 -106.5 t-17.5 -106.5t-17 -95.5q-16 -82 -33 -169t-43 -164zM614 1745v233h191v-233h-191z" />
<glyph unicode="&#xc5;" horiz-adv-x="1026" d="M23 0l362 1581h283l333 -1581h-225l-92 489h-344l-96 -489h-221zM315 1860q0 90 61.5 145t153.5 55t152.5 -55t60.5 -145t-62.5 -144.5t-152.5 -54.5t-151.5 55.5t-61.5 143.5zM375 668q20 2 38.5 4t39.5 2h129q18 0 35.5 -2t33.5 -4q-25 82 -38 166t-29 167 q-8 43 -16.5 95.5t-15.5 106.5t-13.5 106.5t-12.5 95.5h-10q-6 -43 -14 -95.5t-16.5 -106.5t-17.5 -106.5t-17 -95.5q-16 -82 -33 -169t-43 -164zM438 1860q0 -41 27 -67t67 -26q41 0 67 27t26 66t-28 64.5t-67 25.5t-65.5 -26t-26.5 -64z" />
<glyph unicode="&#xc6;" horiz-adv-x="1589" d="M14 0l656 1581h827v-186h-485q-20 0 -41 6q6 -23 6 -41v-418q0 -20 -6 -41q20 6 41 6h452v-182h-452q-20 0 -41 6q6 -18 6 -39v-471q0 -20 -6 -41q20 6 41 6h485v-186h-731v455q0 18 6 41q-29 -6 -53 -7h-293l-186 -489h-226zM492 670q29 2 54 3t54 1h119q16 0 26.5 -1 t26.5 -5q-4 14 -5 24t-1 27v358q0 74 2 148.5t6 148.5l-12 2q-31 -92 -63.5 -181t-67.5 -179q-35 -88 -67 -174t-72 -172z" />
<glyph unicode="&#xc7;" horiz-adv-x="1050" d="M123 549v514q0 111 13.5 209t57.5 172t128 118t225 44q119 0 197.5 -33t127 -91.5t69 -137t20.5 -173.5v-88h-213v82q0 47 -7.5 93.5t-29 83t-60.5 60t-102 23.5q-82 0 -126 -36.5t-63.5 -92t-22.5 -121t-3 -122.5v-666q0 -102 47 -166.5t160 -64.5q61 0 101 20.5 t63.5 55t33 79.5t9.5 95v81h213v-88q0 -96 -21.5 -174t-70 -133t-127 -86t-195.5 -31l-17 -63h19q74 0 112.5 -45t38.5 -111q0 -86 -59 -140t-160 -54q-35 0 -60.5 2t-43.5 6q-23 4 -37 10l18 105q14 -4 27 -7q20 -6 47 -6q16 0 35.5 3t36 11.5t28 23t11.5 36.5q0 84 -99 84 q-10 0 -25.5 -1t-25.5 -3l37 158q-111 16 -172 67t-92 126t-37 170t-6 202z" />
<glyph unicode="&#xc8;" horiz-adv-x="976" d="M145 0v1581h740v-186h-494q-20 0 -41 6q6 -23 6 -41v-418q0 -20 -6 -41q20 6 41 6h457v-182h-457q-20 0 -41 6q6 -23 6 -41v-469q0 -20 -6 -41q20 6 41 6h494v-186h-740zM291 2009h227l100 -287h-161z" />
<glyph unicode="&#xc9;" horiz-adv-x="976" d="M145 0v1581h740v-186h-494q-20 0 -41 6q6 -23 6 -41v-418q0 -20 -6 -41q20 6 41 6h457v-182h-457q-20 0 -41 6q6 -23 6 -41v-469q0 -20 -6 -41q20 6 41 6h494v-186h-740zM373 1718l100 287h227l-165 -287h-162z" />
<glyph unicode="&#xca;" horiz-adv-x="976" d="M145 0v1581h740v-186h-494q-20 0 -41 6q6 -23 6 -41v-418q0 -20 -6 -41q20 6 41 6h457v-182h-457q-20 0 -41 6q6 -23 6 -41v-469q0 -20 -6 -41q20 6 41 6h494v-186h-740zM182 1712l172 283h271l174 -283h-181q-33 47 -63.5 92t-56.5 97q-31 -49 -61.5 -95.5t-65.5 -93.5 h-189z" />
<glyph unicode="&#xcb;" horiz-adv-x="976" d="M145 0v1581h740v-186h-494q-20 0 -41 6q6 -23 6 -41v-418q0 -20 -6 -41q20 6 41 6h457v-182h-457q-20 0 -41 6q6 -23 6 -41v-469q0 -20 -6 -41q20 6 41 6h494v-186h-740zM213 1745v233h190v-233h-190zM573 1745v233h191v-233h-191z" />
<glyph unicode="&#xcc;" horiz-adv-x="505" d="M35 2009h227l100 -287h-161zM147 0v1581h211v-1581h-211z" />
<glyph unicode="&#xcd;" horiz-adv-x="505" d="M137 1718l101 287h227l-166 -287h-162zM145 0v1581h211v-1581h-211z" />
<glyph unicode="&#xce;" horiz-adv-x="505" d="M-57 1712l170 283h272l174 -283h-180q-33 47 -63.5 93t-59.5 96q-29 -49 -59.5 -95.5t-65.5 -93.5h-188zM145 0v1581h211v-1581h-211z" />
<glyph unicode="&#xcf;" horiz-adv-x="505" d="M-23 1745v233h191v-233h-191zM145 0v1581h211v-1581h-211zM336 1745v233h190v-233h-190z" />
<glyph unicode="&#xd0;" horiz-adv-x="1157" d="M0 745v183h98q16 0 27.5 -1t26.5 -5q-4 14 -5.5 25t-1.5 28v606h451q135 0 219 -43t131 -117.5t64.5 -174t17.5 -212.5v-508q0 -117 -17.5 -214t-64.5 -166.5t-130 -107.5t-214 -38h-457v698q0 16 1 27.5t6 26.5q-35 -10 -76 -8.5t-76 1.5zM350 180q27 6 53 6h195 q78 0 122 28t65.5 74t26.5 105.5t5 120.5v553q0 63 -5 121.5t-26.5 104.5t-65.5 74t-122 28h-195q-27 0 -53 6q6 -23 6 -43v-393q0 -23 -6 -43q20 6 43 6h195v-183h-195q-23 0 -43 7q6 -23 6 -43v-486q0 -23 -6 -43z" />
<glyph unicode="&#xd1;" horiz-adv-x="1245" d="M150 0v1581h260l344 -860q37 -92 72.5 -185.5t68.5 -187.5l10 4q-4 92 -6 180.5t-2 180.5v868h199v-1581h-260l-349 889q-74 188 -137 375l-10 -2q4 -84 6 -166t2 -166v-930h-198zM307 1841q43 49 91 94t120 45q41 0 73 -11t44 -17q27 -12 54.5 -25.5t55.5 -13.5 q37 0 59.5 17.5t57.5 56.5l105 -82q-45 -61 -92.5 -108.5t-118.5 -47.5v-2q-23 0 -50.5 6t-72.5 25q-27 12 -54.5 23t-56.5 11q-33 0 -53 -15t-55 -48z" />
<glyph unicode="&#xd2;" horiz-adv-x="1136" d="M123 551v479q0 121 15.5 225.5t63.5 182.5t135 123t230 45t230.5 -45t135.5 -123t63.5 -182.5t15.5 -225.5v-479q0 -121 -15.5 -225.5t-63.5 -182t-135 -123t-231 -45.5q-143 0 -230 45.5t-135 123t-63.5 182t-15.5 225.5zM334 537q0 -63 4 -131t26.5 -123.5t69.5 -91 t133 -35.5t133.5 35.5t70 91t26.5 123t4 131.5v512q0 63 -4 129.5t-26.5 122t-70 90t-133.5 34.5t-133 -34.5t-69.5 -90t-26.5 -122t-4 -129.5v-512zM348 2009h227l101 -287h-160z" />
<glyph unicode="&#xd3;" horiz-adv-x="1134" d="M123 551v479q0 121 15.5 225.5t63.5 182.5t135 123t230 45t230.5 -45t135.5 -123t63.5 -182.5t15.5 -225.5v-479q0 -121 -15.5 -225.5t-63.5 -182t-135 -123t-231 -45.5q-143 0 -230 45.5t-135 123t-63.5 182t-15.5 225.5zM334 537q0 -63 4 -131t26.5 -123.5t69.5 -91 t133 -35.5t133.5 35.5t70 91t26.5 123t4 131.5v512q0 63 -4 129.5t-26.5 122t-70 90t-133.5 34.5t-133 -34.5t-69.5 -90t-26.5 -122t-4 -129.5v-512zM453 1718l100 287h227l-166 -287h-161z" />
<glyph unicode="&#xd4;" horiz-adv-x="1134" d="M123 551v479q0 121 15.5 225.5t63.5 182.5t135 123t230 45t230.5 -45t135.5 -123t63.5 -182.5t15.5 -225.5v-479q0 -121 -15.5 -225.5t-63.5 -182t-135 -123t-231 -45.5q-143 0 -230 45.5t-135 123t-63.5 182t-15.5 225.5zM262 1712l170 283h273l174 -283h-181 q-33 47 -63.5 93t-59.5 96q-29 -49 -61.5 -95.5t-64.5 -93.5h-187zM334 537q0 -63 4 -131t26.5 -123.5t69.5 -91t133 -35.5t133.5 35.5t70 91t26.5 123t4 131.5v512q0 63 -4 129.5t-26.5 122t-70 90t-133.5 34.5t-133 -34.5t-69.5 -90t-26.5 -122t-4 -129.5v-512z" />
<glyph unicode="&#xd5;" horiz-adv-x="1134" d="M123 551v479q0 121 15.5 225.5t63.5 182.5t135 123t230 45t230.5 -45t135.5 -123t63.5 -182.5t15.5 -225.5v-479q0 -121 -15.5 -225.5t-63.5 -182t-135 -123t-231 -45.5q-143 0 -230 45.5t-135 123t-63.5 182t-15.5 225.5zM227 1841q43 49 91.5 94t119.5 45q41 0 73 -11 t44 -17q27 -12 54.5 -25.5t56.5 -13.5q37 0 59.5 17.5t56.5 56.5l105 -82q-45 -61 -92 -108.5t-119 -47.5v-2q-23 0 -50.5 6t-72.5 25q-27 12 -54.5 23t-56.5 11q-33 0 -53 -15t-55 -48zM334 537q0 -63 4 -131t26.5 -123.5t69.5 -91t133 -35.5t133.5 35.5t70 91t26.5 123 t4 131.5v512q0 63 -4 129.5t-26.5 122t-70 90t-133.5 34.5t-133 -34.5t-69.5 -90t-26.5 -122t-4 -129.5v-512z" />
<glyph unicode="&#xd6;" horiz-adv-x="1134" d="M123 551v479q0 121 15.5 225.5t63.5 182.5t135 123t230 45t230.5 -45t135.5 -123t63.5 -182.5t15.5 -225.5v-479q0 -121 -15.5 -225.5t-63.5 -182t-135 -123t-231 -45.5q-143 0 -230 45.5t-135 123t-63.5 182t-15.5 225.5zM293 1745v233h190v-233h-190zM334 537 q0 -63 4 -131t26.5 -123.5t69.5 -91t133 -35.5t133.5 35.5t70 91t26.5 123t4 131.5v512q0 63 -4 129.5t-26.5 122t-70 90t-133.5 34.5t-133 -34.5t-69.5 -90t-26.5 -122t-4 -129.5v-512zM651 1745v233h191v-233h-191z" />
<glyph unicode="&#xd7;" d="M119 287l262 262q18 18 41 33q-23 14 -41 32l-262 263l110 110l263 -260q10 -10 18 -19.5t14 -21.5q8 12 16.5 21.5t18.5 19.5l260 260l113 -110l-262 -263q-18 -18 -41 -32q23 -14 41 -33l262 -262l-113 -113l-260 262q-10 10 -18.5 19.5t-16.5 21.5q-6 -12 -14 -21.5 t-18 -19.5l-263 -262z" />
<glyph unicode="&#xd8;" horiz-adv-x="1136" d="M121 -39l82 182q-31 43 -46.5 93.5t-21.5 103.5t-7 106.5t-1 104.5v479q0 121 15.5 225.5t63.5 182.5t135 123t230 45q72 0 141.5 -18.5t129.5 -59.5q8 39 26.5 75.5t34.5 71.5l121 -53l-86 -182q31 -45 46 -95.5t22.5 -102.5t8.5 -106.5t1 -105.5v-479 q0 -121 -15.5 -225.5t-63.5 -182t-135 -123t-231 -45.5q-150 0 -268 78q-10 -39 -27.5 -75.5t-33.5 -71.5zM338 434l10 -2q63 172 141 338l263 571q-31 47 -78 72t-105 25q-86 0 -132 -40t-68.5 -99.5t-26.5 -130t-4 -134.5v-600zM393 240q29 -47 78 -70t102 -23 q86 0 133.5 39t69 99.5t25.5 131t4 134.5v477q0 29 -1 58.5t-3 58.5q-98 -229 -200.5 -453.5t-207.5 -451.5z" />
<glyph unicode="&#xd9;" horiz-adv-x="1146" d="M127 492v1089h211v-991v-143.5t20.5 -140t69.5 -106.5t145 -42t144.5 43t69 107.5t20.5 140v141.5v991h211v-1014v-114.5t-8 -114.5q-27 -186 -139.5 -274.5t-297.5 -88.5q-113 0 -213 40t-163 139q-49 78 -59.5 162.5t-10.5 175.5zM354 2009h228l100 -287h-162z" />
<glyph unicode="&#xda;" horiz-adv-x="1146" d="M127 492v1089h211v-991v-143.5t20.5 -140t69.5 -106.5t145 -42t144.5 43t69 107.5t20.5 140v141.5v991h211v-1014v-114.5t-8 -114.5q-27 -186 -139.5 -274.5t-297.5 -88.5q-113 0 -213 40t-163 139q-49 78 -59.5 162.5t-10.5 175.5zM459 1718l100 287h227l-165 -287h-162 z" />
<glyph unicode="&#xdb;" horiz-adv-x="1146" d="M127 492v1089h211v-991v-143.5t20.5 -140t69.5 -106.5t145 -42t144.5 43t69 107.5t20.5 140v141.5v991h211v-1014v-114.5t-8 -114.5q-27 -186 -139.5 -274.5t-297.5 -88.5q-113 0 -213 40t-163 139q-49 78 -59.5 162.5t-10.5 175.5zM266 1712l172 283h273l174 -283h-180 q-31 47 -64 93t-59 96q-29 -49 -62 -95.5t-65 -93.5h-189z" />
<glyph unicode="&#xdc;" horiz-adv-x="1146" d="M127 492v1089h211v-991v-143.5t20.5 -140t69.5 -106.5t145 -42t144.5 43t69 107.5t20.5 140v141.5v991h211v-1014v-114.5t-8 -114.5q-27 -186 -139.5 -274.5t-297.5 -88.5q-113 0 -213 40t-163 139q-49 78 -59.5 162.5t-10.5 175.5zM299 1745v233h190v-233h-190z M657 1745v233h191v-233h-191z" />
<glyph unicode="&#xdd;" horiz-adv-x="1103" d="M10 1581h230l206 -463q25 -57 48.5 -112.5t46.5 -114.5h8q23 57 46 113.5t50 111.5l215 465h230l-439 -893v-688h-211v676zM436 1718l101 287h227l-166 -287h-162z" />
<glyph unicode="&#xde;" horiz-adv-x="1058" d="M145 0v1581h217v-266q0 -20 -4 -37q-2 -8 -2 -12q6 0 15 2q8 2 17 3t22 1h170q117 0 192.5 -32t119.5 -92.5t62.5 -145.5t18.5 -191q0 -86 -13.5 -183.5t-60.5 -170.5q-51 -78 -132 -114t-173 -36h-188q-16 0 -27.5 1t-26.5 5q4 -14 5 -25.5t1 -27.5v-260h-213zM350 487 q18 6 44 7.5t54.5 1.5t55 -1t45.5 -1q68 0 109.5 28.5t65.5 72.5t31 100.5t7 111.5t-7 106.5t-30 89t-63.5 60t-106.5 22.5h-141q-39 0 -64 7q4 -16 5 -26.5t1 -27.5v-497q0 -16 -1 -26.5t-5 -27.5z" />
<glyph unicode="&#xdf;" horiz-adv-x="983" d="M129 0v1247q0 174 85 262t267 88q197 0 283 -94t86 -284q0 -53 -5 -99.5t-21.5 -84.5t-46 -70.5t-81.5 -57.5v-8q61 -18 97 -52t52.5 -78t21.5 -96t5 -108v-82q0 -117 -10 -207t-50 -151.5t-120 -93t-215 -31.5h-63v184h59q74 0 113 22.5t57.5 61.5t20.5 92.5t2 116.5v76 q0 59 -5.5 106.5t-25 80t-58 50t-106.5 17.5h-57v174h57q55 0 89 16.5t52.5 47t24.5 73.5t6 92q0 43 -4 84t-20.5 73t-47 50.5t-84.5 18.5q-86 0 -119.5 -51.5t-33.5 -129.5v-1255h-205z" />
<glyph unicode="&#xe0;" horiz-adv-x="911" d="M84 276v52q0 123 67.5 206.5t184.5 133.5l67 28q39 16 75 30.5t62.5 35t42 49.5t15.5 76q0 129 -139 129q-47 0 -78 -11.5t-47.5 -32t-22.5 -50t-6 -64.5v-47h-205v47q0 174 94.5 247t270.5 73q166 0 249 -72t83 -232v-780q0 -25 2 -48t12 -46h-195q-4 8 -6 16 q-4 20 -4 41q0 16 -1 23.5t3 13.5l-8 2q-20 -33 -53 -55q-29 -20 -73 -36.5t-105 -16.5q-59 0 -111.5 15t-91.5 50t-60.5 90.5t-21.5 132.5zM238 1614h227l100 -287h-162zM291 283q0 -68 38 -95.5t103 -27.5q78 0 119 49t41 127v192v27.5t1 17t3 16.5t4 27q-8 -6 -16 -14 q-16 -12 -43 -24l-103 -48q-57 -27 -102 -69.5t-45 -124.5v-53z" />
<glyph unicode="&#xe1;" horiz-adv-x="911" d="M84 276v52q0 123 67.5 206.5t184.5 133.5l67 28q39 16 75 30.5t62.5 35t42 49.5t15.5 76q0 129 -139 129q-47 0 -78 -11.5t-47.5 -32t-22.5 -50t-6 -64.5v-47h-205v47q0 174 94.5 247t270.5 73q166 0 249 -72t83 -232v-780q0 -25 2 -48t12 -46h-195q-4 8 -6 16 q-4 20 -4 41q0 16 -1 23.5t3 13.5l-8 2q-20 -33 -53 -55q-29 -20 -73 -36.5t-105 -16.5q-59 0 -111.5 15t-91.5 50t-60.5 90.5t-21.5 132.5zM291 283q0 -68 38 -95.5t103 -27.5q78 0 119 49t41 127v192v27.5t1 17t3 16.5t4 27q-8 -6 -16 -14q-16 -12 -43 -24l-103 -48 q-57 -27 -102 -69.5t-45 -124.5v-53zM340 1323l100 287h228l-166 -287h-162z" />
<glyph unicode="&#xe2;" horiz-adv-x="911" d="M84 276q0 -78 21.5 -133t60.5 -90t91 -50t112 -15q61 0 105 16t73 37q33 23 53 55l8 -2q-4 -6 -3 -13t1 -24q0 -20 4 -41q2 -8 6 -16h195q-10 23 -12 46.5t-2 47.5v780q0 160 -83 232t-249 72q-176 0 -270.5 -73t-94.5 -247v-47h205v47q0 35 6 64.5t22.5 50t47.5 32 t78 11.5q139 0 139 -129q0 -47 -15.5 -76t-42 -49.5t-62.5 -34.5t-75 -31l-67 -28q-117 -49 -184.5 -133t-67.5 -207v-52zM150 1317l174 282h270l172 -282h-188q-35 47 -66 93t-61 95q-27 -51 -58 -96t-63 -92h-180zM291 283v53q0 82 45 125t102 69l103 48q27 12 43 24 q8 8 16 14q-2 -18 -4 -27t-3 -16.5t-1 -16.5v-28v-192q0 -78 -41 -127t-119 -49q-66 0 -103.5 27.5t-37.5 95.5z" />
<glyph unicode="&#xe3;" horiz-adv-x="911" d="M84 276v52q0 123 67.5 206.5t184.5 133.5l67 28q39 16 75 30.5t62.5 35t42 49.5t15.5 76q0 129 -139 129q-47 0 -78 -11.5t-47.5 -32t-22.5 -50t-6 -64.5v-47h-205v47q0 174 94.5 247t270.5 73q166 0 249 -72t83 -232v-780q0 -25 2 -48t12 -46h-195q-4 8 -6 16 q-4 20 -4 41q0 16 -1 23.5t3 13.5l-8 2q-20 -33 -53 -55q-29 -20 -73 -36.5t-105 -16.5q-59 0 -111.5 15t-91.5 50t-60.5 90.5t-21.5 132.5zM113 1468q43 49 91 94.5t120 45.5q41 0 72.5 -11.5t43.5 -17.5q27 -12 54.5 -25.5t56.5 -13.5q37 0 59.5 17.5t57.5 56.5l104 -82 q-45 -61 -92 -108.5t-119 -47.5v-2q-23 0 -50.5 6t-72.5 25q-27 10 -54.5 22.5t-55.5 12.5q-33 0 -53.5 -15.5t-55.5 -48.5zM291 283q0 -68 38 -95.5t103 -27.5q78 0 119 49t41 127v192v27.5t1 17t3 16.5t4 27q-8 -6 -16 -14q-16 -12 -43 -24l-103 -48q-57 -27 -102 -69.5 t-45 -124.5v-53z" />
<glyph unicode="&#xe4;" horiz-adv-x="911" d="M84 276v52q0 123 67.5 206.5t184.5 133.5l67 28q39 16 75 30.5t62.5 35t42 49.5t15.5 76q0 129 -139 129q-47 0 -78 -11.5t-47.5 -32t-22.5 -50t-6 -64.5v-47h-205v47q0 174 94.5 247t270.5 73q166 0 249 -72t83 -232v-780q0 -25 2 -48t12 -46h-195q-4 8 -6 16 q-4 20 -4 41q0 16 -1 23.5t3 13.5l-8 2q-20 -33 -53 -55q-29 -20 -73 -36.5t-105 -16.5q-59 0 -111.5 15t-91.5 50t-60.5 90.5t-21.5 132.5zM180 1348v233h191v-233h-191zM291 283q0 -68 38 -95.5t103 -27.5q78 0 119 49t41 127v192v27.5t1 17t3 16.5t4 27q-8 -6 -16 -14 q-16 -12 -43 -24l-103 -48q-57 -27 -102 -69.5t-45 -124.5v-53zM539 1348v233h190v-233h-190z" />
<glyph unicode="&#xe5;" horiz-adv-x="911" d="M84 276v52q0 123 67.5 206.5t184.5 133.5l67 28q39 16 75 30.5t62.5 35t42 49.5t15.5 76q0 129 -139 129q-47 0 -78 -11.5t-47.5 -32t-22.5 -50t-6 -64.5v-47h-205v47q0 174 94.5 247t270.5 73q166 0 249 -72t83 -232v-780q0 -25 2 -48t12 -46h-195q-4 8 -6 16 q-4 20 -4 41q0 16 -1 23.5t3 13.5l-8 2q-20 -33 -53 -55q-29 -20 -73 -36.5t-105 -16.5q-59 0 -111.5 15t-91.5 50t-60.5 90.5t-21.5 132.5zM242 1470q0 90 61.5 145.5t153.5 55.5t152.5 -55.5t60.5 -145.5t-62.5 -144t-152.5 -54t-151.5 55t-61.5 143zM291 283 q0 -68 38 -95.5t103 -27.5q78 0 119 49t41 127v192v27.5t1 17t3 16.5t4 27q-8 -6 -16 -14q-16 -12 -43 -24l-103 -48q-57 -27 -102 -69.5t-45 -124.5v-53zM365 1470q0 -41 26.5 -66.5t67.5 -25.5t66.5 26.5t25.5 65.5t-27.5 65t-66.5 26t-65.5 -26t-26.5 -65z" />
<glyph unicode="&#xe6;" horiz-adv-x="1429" d="M84 266v60q0 86 38 152.5t103.5 111.5t153.5 69.5t190 28.5l35 2q-4 8 -6 17q-4 20 -4 49v125q0 66 -36 100.5t-107 34.5q-92 0 -119 -43t-27 -115v-47h-205v47q0 174 94.5 247t270.5 73q72 0 119 -17.5t75 -38.5q33 -25 52 -55q18 31 53 55q29 20 76 38t118 18 q104 0 176 -26t116 -75t63.5 -119.5t19.5 -158.5v-273h-487q-16 0 -27.5 1t-25.5 5q4 -10 4 -23v-30v-168q0 -76 41 -125t120 -49q55 0 88 17.5t51.5 47t24.5 66.5t6 76v47h205v-49q0 -170 -88 -268.5t-287 -98.5q-119 0 -181 34t-101 95q-37 -39 -117 -77.5t-190 -38.5 q-59 0 -111.5 16t-91.5 50t-60.5 86.5t-21.5 125.5zM291 279q0 -59 38 -89t103 -30q39 0 68.5 11t50.5 26q23 16 41 39v229q0 16 1 26.5t3 18.5t6 14l-41 -2q-70 -4 -121 -22.5t-83.5 -46t-49 -61.5t-16.5 -66v-47zM786 692q12 0 23 2q10 2 19.5 3t15.5 1h241q23 0 48 -6 q-6 31 -7 60v49q0 43 -5 82t-22.5 68.5t-51 47t-89.5 17.5q-51 0 -82.5 -16.5t-49 -46t-23.5 -68.5t-6 -84v-53q0 -10 -2 -19.5t-4 -17.5t-5 -19z" />
<glyph unicode="&#xe7;" horiz-adv-x="917" d="M109 381v356q0 94 11 175t49 140.5t108.5 92.5t191.5 33q188 0 271 -85t83 -241v-90h-198v57q0 37 -4.5 72t-19.5 62.5t-45 45t-81 17.5q-63 0 -97 -24.5t-48.5 -63.5t-15.5 -86t-1 -92v-347q0 -41 2 -88t16.5 -87t45.5 -65.5t88 -25.5t90 20.5t48 53.5t18.5 75t3.5 85 v80h200v-82q0 -96 -16 -168t-54 -121t-102.5 -74.5t-160.5 -30.5l-15 -63h19q74 0 111.5 -45t37.5 -111q0 -86 -59.5 -140t-159.5 -54q-35 0 -61.5 2t-42.5 6q-20 4 -35 10l18 105q14 -4 27 -7q20 -6 45 -6q16 0 35.5 3t36 11.5t27.5 23t11 36.5q0 84 -98 84q-10 0 -24.5 -1 t-24.5 -3l35 156q-80 10 -131 42.5t-81 85t-42 121t-12 150.5z" />
<glyph unicode="&#xe8;" horiz-adv-x="937" d="M102 391v367q0 94 15.5 171t56.5 132t111.5 86t181.5 31q104 0 176 -26t116 -75t63.5 -119.5t19.5 -158.5v-273h-488q-16 0 -27.5 1t-25.5 5q4 -10 4 -23v-30v-168q0 -76 41 -125t121 -49q55 0 88 17.5t51.5 47t24.5 66.5t6 76v47h205v-49q0 -170 -88 -268.5t-287 -98.5 q-111 0 -182.5 30t-111.5 84t-55.5 131t-15.5 171zM250 1614h227l101 -287h-162zM301 692q10 4 24.5 5t26.5 1h242q22 0 47 -6q-6 31 -6 60v49q0 43 -5 82t-22.5 68.5t-51.5 47t-89 17.5q-51 0 -83 -16.5t-49.5 -46t-23.5 -68.5t-6 -84v-49q-2 -10 -2 -21q-2 -10 -2 -20.5 v-18.5z" />
<glyph unicode="&#xe9;" horiz-adv-x="937" d="M102 391v367q0 94 15.5 171t56.5 132t111.5 86t181.5 31q104 0 176 -26t116 -75t63.5 -119.5t19.5 -158.5v-273h-488q-16 0 -27.5 1t-25.5 5q4 -10 4 -23v-30v-168q0 -76 41 -125t121 -49q55 0 88 17.5t51.5 47t24.5 66.5t6 76v47h205v-49q0 -170 -88 -268.5t-287 -98.5 q-111 0 -182.5 30t-111.5 84t-55.5 131t-15.5 171zM301 692q10 4 24.5 5t26.5 1h242q22 0 47 -6q-6 31 -6 60v49q0 43 -5 82t-22.5 68.5t-51.5 47t-89 17.5q-51 0 -83 -16.5t-49.5 -46t-23.5 -68.5t-6 -84v-49q-2 -10 -2 -21q-2 -10 -2 -20.5v-18.5zM354 1323l101 287h227 l-166 -287h-162z" />
<glyph unicode="&#xea;" horiz-adv-x="937" d="M102 391q0 -94 15.5 -171t55.5 -131t111.5 -84t182.5 -30q199 0 287 98.5t88 268.5v49h-205v-47q0 -39 -6 -76t-24.5 -66.5t-51.5 -47t-88 -17.5q-80 0 -121 49.5t-41 124.5v168v29.5t-4 23.5q14 -4 25.5 -5t27.5 -1h488v273q0 88 -19.5 158.5t-63.5 119.5t-116 75 t-176 26q-111 0 -181.5 -31t-111.5 -86t-56.5 -132t-15.5 -171v-367zM172 1317l174 282h270l172 -282h-188q-35 47 -65.5 93t-61.5 95q-27 -51 -57.5 -96t-63.5 -92h-180zM301 692v18.5t2 20.5q0 10 2 21v49q0 45 6 84t23.5 68.5t49.5 46t83 16.5q55 0 89 -17.5t51.5 -47 t22.5 -68.5t5 -82v-49q0 -29 6 -60q-25 6 -47 6h-242q-12 0 -26.5 -1t-24.5 -5z" />
<glyph unicode="&#xeb;" horiz-adv-x="937" d="M102 391v367q0 94 15.5 171t56.5 132t111.5 86t181.5 31q104 0 176 -26t116 -75t63.5 -119.5t19.5 -158.5v-273h-488q-16 0 -27.5 1t-25.5 5q4 -10 4 -23v-30v-168q0 -76 41 -125t121 -49q55 0 88 17.5t51.5 47t24.5 66.5t6 76v47h205v-49q0 -170 -88 -268.5t-287 -98.5 q-111 0 -182.5 30t-111.5 84t-55.5 131t-15.5 171zM188 1348v233h191v-233h-191zM301 692q10 4 24.5 5t26.5 1h242q22 0 47 -6q-6 31 -6 60v49q0 43 -5 82t-22.5 68.5t-51.5 47t-89 17.5q-51 0 -83 -16.5t-49.5 -46t-23.5 -68.5t-6 -84v-49q-2 -10 -2 -21q-2 -10 -2 -20.5 v-18.5zM547 1348v233h190v-233h-190z" />
<glyph unicode="&#xec;" horiz-adv-x="466" d="M14 1614h228l100 -287h-162zM129 0v1153h205v-1153h-205z" />
<glyph unicode="&#xed;" horiz-adv-x="466" d="M119 1323l100 287h227l-165 -287h-162zM131 0v1153h205v-1153h-205z" />
<glyph unicode="&#xee;" horiz-adv-x="466" d="M-55 1317l153 282h271l151 -282h-188q-35 47 -55.5 93t-51.5 95q-27 -51 -47 -96t-53 -92h-180zM129 0h205v1153h-205v-1153z" />
<glyph unicode="&#xef;" horiz-adv-x="466" d="M-41 1348v233h191v-233h-191zM131 0v1153h205v-1153h-205zM317 1348v233h191v-233h-191z" />
<glyph unicode="&#xf0;" horiz-adv-x="960" d="M74 1475l61 131q33 -6 72 -15.5t78 -22t74.5 -26.5t62.5 -29l213 142l76 -111l-150 -102q84 -66 140.5 -142.5t89 -164.5t46 -184.5t13.5 -198.5v-351q0 -195 -84 -298t-287 -103t-286.5 103.5t-83.5 297.5v351q0 80 17 152.5t56 127.5t101.5 88t154.5 33q29 0 48.5 -5 t33.5 -11q16 -8 27 -17l10 6q-29 72 -60.5 127.5t-90.5 94.5l-236 -156l-76 108q8 4 35 21.5t55 38.5q35 23 74 51q-29 12 -59 25q-27 10 -60 21t-65 18zM313 406q0 -45 5.5 -88.5t22.5 -78t50 -56t88 -21.5t88 21.5t50.5 56t21.5 78.5t4 88v342q0 43 -5 87t-22.5 78.5 t-49 56t-87.5 21.5q-57 0 -90 -21.5t-50 -56t-21.5 -77.5t-4.5 -88v-342z" />
<glyph unicode="&#xf1;" horiz-adv-x="976" d="M131 0v1153h199v-47q0 -16 -3 -28.5t-8 -26.5l9 -2q98 129 258 129q127 0 198.5 -80t71.5 -203v-895h-205v799q0 41 -2 80t-15 69.5t-42 49t-82 18.5q-49 0 -83 -18.5t-53.5 -49t-28.5 -70.5t-9 -83v-795h-205zM154 1468q43 49 91 94.5t120 45.5q41 0 72.5 -11.5 t43.5 -17.5q27 -12 54.5 -25.5t56.5 -13.5q37 0 59.5 17.5t57.5 56.5l104 -82q-45 -61 -92 -108.5t-119 -47.5v-2q-23 0 -50.5 6t-72.5 25q-27 10 -54.5 22.5t-55.5 12.5q-33 0 -53.5 -15.5t-55.5 -48.5z" />
<glyph unicode="&#xf2;" horiz-adv-x="962" d="M111 377v399q0 195 84 298.5t286 103.5q106 0 177 -27t114 -78t61.5 -126t18.5 -171v-399q0 -195 -84 -298.5t-287 -103.5q-106 0 -177 27t-114 77t-61 125t-18 173zM262 1614h227l101 -287h-162zM315 360q0 -45 5.5 -84.5t22.5 -70.5t50 -49.5t88 -18.5t88 18.5 t50.5 49.5t21.5 71.5t4 83.5v433q0 43 -5 84t-21.5 71.5t-49 49t-88.5 18.5q-57 0 -90 -18.5t-50 -49t-21.5 -70.5t-4.5 -85v-433z" />
<glyph unicode="&#xf3;" horiz-adv-x="962" d="M111 377v399q0 195 84 298.5t286 103.5q106 0 177 -27t114 -78t61.5 -126t18.5 -171v-399q0 -195 -84 -298.5t-287 -103.5q-106 0 -177 27t-114 77t-61 125t-18 173zM315 360q0 -45 5.5 -84.5t22.5 -70.5t50 -49.5t88 -18.5t88 18.5t50.5 49.5t21.5 71.5t4 83.5v433 q0 43 -5 84t-21.5 71.5t-49 49t-88.5 18.5q-57 0 -90 -18.5t-50 -49t-21.5 -70.5t-4.5 -85v-433zM365 1323l100 287h227l-166 -287h-161z" />
<glyph unicode="&#xf4;" horiz-adv-x="962" d="M111 377q0 -98 18 -173t61 -125t114 -77t177 -27q203 0 287 103.5t84 298.5v399q0 96 -18.5 171t-61.5 126t-113.5 78t-177.5 27q-203 0 -286.5 -103.5t-83.5 -298.5v-399zM176 1317l174 282h271l172 -282h-189q-35 47 -65.5 93t-61.5 95q-27 -51 -57.5 -96t-63.5 -92 h-180zM315 360v433q0 45 4.5 85t21.5 70.5t50 49t90 18.5q55 0 88 -18.5t49.5 -49t21.5 -71.5t5 -84v-433q0 -43 -4 -83.5t-21.5 -71.5t-50 -49.5t-88.5 -18.5q-55 0 -88 18.5t-50 49.5t-22.5 70.5t-5.5 84.5z" />
<glyph unicode="&#xf5;" horiz-adv-x="962" d="M111 377v399q0 195 84 298.5t286 103.5q106 0 177 -27t114 -78t61.5 -126t18.5 -171v-399q0 -195 -84 -298.5t-287 -103.5q-106 0 -177 27t-114 77t-61 125t-18 173zM156 1427q43 49 91 94.5t120 45.5q41 0 72.5 -11.5t43.5 -17.5q27 -12 54.5 -25.5t56.5 -13.5 q37 0 59.5 17.5t57.5 56.5l104 -82q-45 -61 -92 -108.5t-119 -47.5v-2q-23 0 -50.5 6.5t-72.5 24.5q-27 10 -54.5 22.5t-55.5 12.5q-33 0 -53.5 -15.5t-55.5 -48.5zM315 360q0 -45 5.5 -84.5t22.5 -70.5t50 -49.5t88 -18.5t88 18.5t50.5 49.5t21.5 71.5t4 83.5v433 q0 43 -5 84t-21.5 71.5t-49 49t-88.5 18.5q-57 0 -90 -18.5t-50 -49t-21.5 -70.5t-4.5 -85v-433z" />
<glyph unicode="&#xf6;" horiz-adv-x="962" d="M111 377v399q0 195 84 298.5t286 103.5q106 0 177 -27t114 -78t61.5 -126t18.5 -171v-399q0 -195 -84 -298.5t-287 -103.5q-106 0 -177 27t-114 77t-61 125t-18 173zM205 1348v233h190v-233h-190zM315 360q0 -45 5.5 -84.5t22.5 -70.5t50 -49.5t88 -18.5t88 18.5 t50.5 49.5t21.5 71.5t4 83.5v433q0 43 -5 84t-21.5 71.5t-49 49t-88.5 18.5q-57 0 -90 -18.5t-50 -49t-21.5 -70.5t-4.5 -85v-433zM563 1348v233h191v-233h-191z" />
<glyph unicode="&#xf7;" d="M98 510v152h854v-152h-854zM422 125v240h207v-240h-207zM422 819v240h207v-240h-207z" />
<glyph unicode="&#xf8;" horiz-adv-x="960" d="M90 -51l80 160q-39 57 -50 128.5t-11 139.5v399q0 193 82.5 297.5t285.5 104.5q55 0 112.5 -11.5t104.5 -42.5q2 14 9.5 33t17.5 38t21.5 37.5t17.5 31.5l110 -56l-82 -161q41 -59 52.5 -130t11.5 -141v-399q0 -195 -85 -298.5t-286 -103.5q-55 0 -111.5 11.5 t-103.5 42.5q-8 -35 -27.5 -71t-35.5 -69zM305 379l10 -2q68 152 141.5 296.5t149.5 291.5q-25 29 -56.5 46t-70.5 17t-74.5 -16.5t-58.5 -48.5q-23 -35 -28 -89.5t-5 -95.5v-194q0 -53 -2 -102.5t-6 -102.5zM354 188q23 -33 55.5 -48t71.5 -15q37 0 73 17.5t58 47.5 q23 35 28 89.5t5 95.5v194q0 53 2 102.5t6 102.5l-10 2q-66 -152 -140.5 -296t-148.5 -292z" />
<glyph unicode="&#xf9;" horiz-adv-x="976" d="M121 258v895h205v-799q0 -41 2 -79.5t15 -69.5t42 -49.5t82 -18.5q49 0 83 18.5t53.5 49.5t28.5 70.5t9 82.5v795h205v-1153h-199v47q0 16 3 28.5t7 26.5l-8 2q-98 -129 -258 -129q-127 0 -198.5 80t-71.5 203zM270 1614h228l100 -287h-162z" />
<glyph unicode="&#xfa;" horiz-adv-x="976" d="M121 258v895h205v-799q0 -41 2 -79.5t15 -69.5t42 -49.5t82 -18.5q49 0 83 18.5t53.5 49.5t28.5 70.5t9 82.5v795h205v-1153h-199v47q0 16 3 28.5t7 26.5l-8 2q-98 -129 -258 -129q-127 0 -198.5 80t-71.5 203zM375 1323l100 287h227l-165 -287h-162z" />
<glyph unicode="&#xfb;" horiz-adv-x="976" d="M121 258q0 -123 71.5 -203t198.5 -80q160 0 258 129l8 -2q-4 -14 -7 -26.5t-3 -28.5v-47h199v1153h-205v-795q0 -43 -9 -82.5t-28.5 -70.5t-53.5 -49.5t-83 -18.5q-53 0 -82 18.5t-42 49.5t-15 69.5t-2 79.5v799h-205v-895zM170 1317l174 282h270l172 -282h-188 q-35 47 -65.5 93t-61.5 95q-27 -51 -57.5 -96t-63.5 -92h-180z" />
<glyph unicode="&#xfc;" horiz-adv-x="976" d="M121 258v895h205v-799q0 -41 2 -79.5t15 -69.5t42 -49.5t82 -18.5q49 0 83 18.5t53.5 49.5t28.5 70.5t9 82.5v795h205v-1153h-199v47q0 16 3 28.5t7 26.5l-8 2q-98 -129 -258 -129q-127 0 -198.5 80t-71.5 203zM215 1348v233h191v-233h-191zM573 1348v233h191v-233h-191z " />
<glyph unicode="&#xfd;" horiz-adv-x="845" d="M27 1153h213q47 -215 95 -426t87 -428h12q35 217 80 428t92 426h213l-348 -1339q-18 -72 -44 -118t-63.5 -72.5t-90 -38t-123.5 -11.5h-25q-10 0 -20.5 -1t-18.5 1v176q4 -2 9 -1t9 1h11q55 0 91 16.5t52 73.5l57 197zM309 1323l101 287h227l-166 -287h-162z" />
<glyph unicode="&#xfe;" horiz-adv-x="966" d="M129 -428v2009h203v-293q0 -59 -2 -119.5t-8 -119.5l8 -2q47 63 101 97t134 34q92 0 149.5 -32t89.5 -86t42 -126t10 -152v-381q0 -82 -6 -164.5t-57 -152.5q-43 -59 -98.5 -84t-127.5 -25q-84 0 -134 31t-99 94l-8 -2q6 -59 8 -117.5t2 -117.5v-291h-207zM338 399 q0 -43 3 -90t18.5 -85t47 -62.5t87.5 -24.5q57 0 88.5 24.5t47 62.5t18.5 84t3 91v355q0 45 -3 91t-18.5 84t-47 62.5t-88.5 24.5q-55 0 -87 -24.5t-47.5 -62.5t-18.5 -85t-3 -90v-355z" />
<glyph unicode="&#xff;" horiz-adv-x="845" d="M27 1153h213q47 -215 95 -426t87 -428h12q35 217 80 428t92 426h213l-348 -1339q-18 -72 -44 -118t-63.5 -74t-90 -39t-123.5 -11h-32t-32 2v176q10 -2 29 -2q55 0 91 17.5t52 74.5l57 197zM150 1348v233h190v-233h-190zM508 1348v233h190v-233h-190z" />
<glyph unicode="&#x152;" horiz-adv-x="1634" d="M125 438v647q0 106 15.5 201.5t60.5 166.5t127 112t213 41q94 0 155.5 -32t120.5 -104l8 5q-10 29 -10 53v53h727v-186h-479q-16 0 -27.5 1t-25.5 5q4 -14 5 -25.5t1 -27.5v-394q0 -16 -1 -27.5t-5 -25.5q14 4 25.5 5t27.5 1h436v-182h-436q-16 0 -27.5 1t-25.5 5 q4 -14 5 -25.5t1 -27.5v-445q0 -16 -1 -27t-5 -26q14 4 25.5 5t27.5 1h479v-186h-727v51q0 16 3 27.5t7 27.5l-8 3q-61 -66 -127.5 -100t-159.5 -34q-111 0 -187.5 36t-124.5 98.5t-70.5 147.5t-22.5 181zM336 575q0 -66 3 -138t24.5 -134.5t69.5 -103.5t136 -41 q63 0 107.5 23.5t73 62.5t42 91t13.5 107v643q0 59 -8.5 120t-33 109t-70.5 78.5t-124 30.5q-90 0 -137 -41t-68.5 -103t-24.5 -136t-3 -137v-431z" />
<glyph unicode="&#x153;" horiz-adv-x="1503" d="M111 377v399q0 195 84 298.5t286 103.5q80 0 132.5 -20.5t84.5 -45.5q37 -29 60 -65q25 37 61 65q33 25 84 45.5t129 20.5q104 0 176 -26t116 -75t63.5 -119.5t19.5 -158.5v-273h-487q-16 0 -27.5 1t-26.5 5q4 -10 4 -23v-30v-168q0 -76 41 -125t121 -49q55 0 88 17.5 t51.5 47t24.5 66.5t6 76v47h205v-49q0 -170 -88 -268.5t-287 -98.5q-84 0 -137 20.5t-84 45.5q-37 29 -53 68q-23 -39 -60 -68q-33 -25 -86 -45.5t-131 -20.5q-106 0 -177 27t-114 77t-61 125t-18 173zM315 360q0 -45 5.5 -84.5t22.5 -70.5t50 -49.5t88 -18.5t88 18.5 t50.5 49.5t21.5 71.5t4 83.5v433q0 43 -5 84t-21.5 71.5t-49 49t-88.5 18.5q-57 0 -90 -18.5t-50 -49t-21.5 -70.5t-4.5 -85v-433zM862 692q10 4 26.5 5t29.5 1h241q22 0 47 -6q-6 31 -6 60v49q0 43 -5 82t-22.5 68.5t-51.5 47t-89 17.5q-51 0 -82.5 -16.5t-49 -46 t-24 -68.5t-6.5 -84v-49q-2 -10 -2 -19q-2 -10 -2 -20.5t-4 -20.5z" />
<glyph unicode="&#x178;" horiz-adv-x="1103" d="M10 1581h230l206 -463q25 -57 48.5 -112.5t46.5 -114.5h8q23 57 46 113.5t50 111.5l215 465h230l-439 -893v-688h-211v676zM276 1745v233h191v-233h-191zM637 1745v233h190v-233h-190z" />
<glyph unicode="&#x2c6;" horiz-adv-x="1024" d="M205 1317l174 282h270l172 -282h-190q-33 47 -64.5 93t-62.5 95q-27 -51 -57.5 -96t-63.5 -92h-178z" />
<glyph unicode="&#x2dc;" horiz-adv-x="1024" d="M182 1468q20 25 43 49.5t47.5 45t54 33t66.5 12.5q39 0 71 -11.5t46 -17.5q25 -12 53.5 -25.5t57.5 -13.5q35 0 58 17.5t58 56.5l105 -82q-47 -61 -94.5 -108.5t-116.5 -47.5v-2q-23 0 -51.5 6t-71.5 25q-29 10 -55.5 22.5t-55.5 12.5q-33 0 -54 -15.5t-54 -48.5z" />
<glyph unicode="&#x2000;" horiz-adv-x="1030" />
<glyph unicode="&#x2001;" horiz-adv-x="2060" />
<glyph unicode="&#x2002;" horiz-adv-x="1030" />
<glyph unicode="&#x2003;" horiz-adv-x="2060" />
<glyph unicode="&#x2004;" horiz-adv-x="686" />
<glyph unicode="&#x2005;" horiz-adv-x="515" />
<glyph unicode="&#x2006;" horiz-adv-x="343" />
<glyph unicode="&#x2007;" horiz-adv-x="343" />
<glyph unicode="&#x2008;" horiz-adv-x="257" />
<glyph unicode="&#x2009;" horiz-adv-x="412" />
<glyph unicode="&#x200a;" horiz-adv-x="114" />
<glyph unicode="&#x2010;" horiz-adv-x="626" d="M115 524v193h397v-193h-397z" />
<glyph unicode="&#x2011;" horiz-adv-x="626" d="M115 524v193h397v-193h-397z" />
<glyph unicode="&#x2012;" horiz-adv-x="626" d="M115 524v193h397v-193h-397z" />
<glyph unicode="&#x2013;" horiz-adv-x="790" d="M0 524v193h791v-193h-791z" />
<glyph unicode="&#x2014;" horiz-adv-x="1005" d="M0 522v195h1006v-195h-1006z" />
<glyph unicode="&#x2018;" horiz-adv-x="434" d="M111 1087v187q0 68 10 120t34.5 94t65.5 74.5t103 61.5v-154q-53 -29 -67.5 -66.5t-20.5 -92.5q12 6 21 7t24 1h43v-232h-213z" />
<glyph unicode="&#x2019;" horiz-adv-x="434" d="M111 1210q53 29 67.5 66t20.5 94q-12 -6 -21.5 -7t-23.5 -1h-43v231h213v-186q0 -68 -10.5 -120t-34 -94t-64.5 -75t-102 -61z" />
<glyph unicode="&#x201a;" horiz-adv-x="428" d="M111 0v231h206v-186q0 -66 -9 -118t-32.5 -94t-62.5 -75.5t-100 -62.5l-2 153q51 27 65 66t21 94q-12 -6 -21.5 -7t-21.5 -1h-43z" />
<glyph unicode="&#x201c;" horiz-adv-x="806" d="M106 1087v187q0 68 10.5 120t35 94t65.5 74.5t102 61.5v-154q-53 -29 -67 -66.5t-21 -92.5q12 6 21.5 7t23.5 1h43v-232h-213zM479 1087v187q0 68 10.5 120t35 94t65.5 74.5t102 61.5v-154q-53 -29 -67.5 -65.5t-20.5 -93.5q12 6 21.5 7t23.5 1h43v-232h-213z" />
<glyph unicode="&#x201d;" horiz-adv-x="806" d="M106 1210q53 29 67.5 66t21.5 94q-12 -6 -21.5 -7t-23.5 -1h-44v231h213v-186q0 -68 -10 -120t-33.5 -94t-64.5 -75t-102 -61zM479 1210q53 29 67.5 67t20.5 93q-12 -6 -21 -7t-24 -1h-43v231h213v-186q0 -68 -10 -120t-33.5 -94t-64.5 -75t-103 -61z" />
<glyph unicode="&#x201e;" horiz-adv-x="806" d="M121 0v231h213v-186q0 -68 -10.5 -120t-34 -94t-64.5 -74.5t-102 -61.5l-2 153q53 29 67.5 66t20.5 94q-12 -6 -21.5 -7t-23.5 -1h-43zM494 0v231h213v-186q0 -68 -10.5 -120t-34 -94t-64.5 -74.5t-102 -61.5l-2 153q53 29 67 67t21 93q-12 -6 -21.5 -7t-23.5 -1h-43z " />
<glyph unicode="&#x2022;" horiz-adv-x="729" d="M0 788q0 76 28.5 142.5t78 116t116 78t142.5 28.5t142 -28.5t115.5 -78t78 -116t28.5 -142.5t-28.5 -142t-78 -115.5t-116 -78t-141.5 -28.5q-76 0 -142.5 28.5t-116 78t-78 116t-28.5 141.5z" />
<glyph unicode="&#x2026;" horiz-adv-x="1284" d="M109 0v240h206v-240h-206zM537 0v240h206v-240h-206zM965 0v240h206v-240h-206z" />
<glyph unicode="&#x202f;" horiz-adv-x="412" />
<glyph unicode="&#x2039;" horiz-adv-x="522" d="M106 471v238l306 325v-280l-142 -129q-10 -10 -20 -17.5t-23 -13.5q20 -10 41 -31l144 -137v-285z" />
<glyph unicode="&#x203a;" horiz-adv-x="522" d="M119 141v285l143 137q20 20 41 31q-12 6 -22.5 13t-20.5 18l-141 129v280l305 -325v-238z" />
<glyph unicode="&#x205f;" horiz-adv-x="515" />
<glyph unicode="&#x20ac;" d="M72 571v152h123v117h-123v151h123v47q0 111 10 209.5t50 172t121 117.5t222 44q119 0 194.5 -32.5t119.5 -91t61.5 -137.5t17.5 -173v-27h-213v29q0 47 -4 93t-21.5 83t-53 60.5t-99.5 23.5q-82 0 -123 -37t-56 -92t-15 -120.5v-123.5v-45h405v-151h-405v-117h405v-152 h-405v-192q0 -51 8 -93t28.5 -73t57.5 -48.5t92 -17.5q61 0 98 20.5t56.5 55.5t25.5 80t6 94v29h213v-27q0 -96 -18.5 -174t-62.5 -133t-120.5 -86t-193.5 -31q-154 0 -235.5 45.5t-118.5 123t-42 182t-5 223.5v22h-123z" />
<glyph unicode="&#x2122;" horiz-adv-x="1591" d="M37 1464v117h498v-117h-146q-20 0 -41 6q6 -23 6 -40v-750h-139v750q0 18 6 40q-23 -6 -41 -6h-143zM637 680v901h203q53 -186 104 -369.5t94 -371.5l11 2q41 188 91 370.5t99 368.5h203v-901h-131v369q0 82 2 161.5t6 161.5l-12 2q-41 -176 -89.5 -348t-95.5 -346h-157 q-51 174 -101.5 346t-91.5 350l-12 -2q4 -82 6 -163t2 -162v-369h-131z" />
<glyph unicode="&#x25fc;" horiz-adv-x="1157" d="M0 0v1157h1157v-1157h-1157z" />
<glyph unicode="&#xfb01;" horiz-adv-x="1015" d="M43 983v170h94q23 0 45 -6q-6 27 -6 53q0 86 2 159t24.5 124t78 79.5t163.5 28.5q27 0 52.5 -1t52.5 -3v-172q-12 2 -25.5 2h-25.5q-35 0 -57.5 -4t-36 -16.5t-18.5 -35t-5 -58.5v-103q0 -27 -6 -53q20 6 45 6h129v-170h-129q-25 0 -45 6q6 -23 6 -45v-944h-205v944 q0 23 6 45q-23 -6 -45 -6h-94zM680 0v1153h205v-1153h-205zM680 1354v227h205v-227h-205z" />
<glyph unicode="&#xfb02;" horiz-adv-x="1015" d="M43 983v170h94q23 0 45 -6q-6 27 -6 53q0 86 2 159t24.5 124t78 79.5t163.5 28.5q27 0 52.5 -1t52.5 -3v-172q-12 2 -25.5 2h-25.5q-35 0 -57.5 -4t-36 -16.5t-18.5 -35t-5 -58.5v-103q0 -27 -6 -53q20 6 45 6h129v-170h-129q-25 0 -45 6q6 -23 6 -45v-944h-205v944 q0 23 6 45q-23 -6 -45 -6h-94zM680 0v1581h205v-1581h-205z" />
<glyph unicode="&#xfb03;" horiz-adv-x="1486" d="M43 983v170h94q23 0 45 -6q-6 27 -6 53v119q0 61 9.5 112.5t38 86t80.5 54t140 19.5q12 0 31 -1t35 -1q20 -2 39 -2v-172h-23q-10 0 -19 1t-15 1q-35 0 -56.5 -4t-34 -16.5t-16.5 -35t-4 -58.5v-103q0 -27 -6 -53q20 6 45 6h129v-170h-129q-25 0 -45 6q6 -23 6 -45v-944 h-205v944q0 23 6 45q-23 -6 -45 -6h-94zM618 983v170h95q23 0 45 -6q-6 27 -6 53v119q0 61 9 112.5t37.5 86t81 54t140.5 19.5q12 0 30.5 -1t34.5 -1q20 -2 39 -2v-172h-22q-10 0 -19.5 1t-15.5 1q-35 0 -56.5 -4t-33.5 -16.5t-16.5 -35t-4.5 -58.5v-103q0 -27 -6 -53 q20 6 45 6h129v-170h-129q-25 0 -45 6q6 -23 6 -45v-944h-204v944q0 23 6 45q-23 -6 -45 -6h-95zM1255 0v1153h205v-1153h-205zM1255 1354v227h205v-227h-205z" />
<glyph unicode="&#xfb04;" horiz-adv-x="1486" d="M43 983v170h94q23 0 45 -6q-6 27 -6 53v119q0 61 9.5 112.5t38 86t80.5 54t140 19.5q12 0 31 -1t35 -1q20 -2 39 -2v-172h-23q-10 0 -19 1t-15 1q-35 0 -56.5 -4t-34 -16.5t-16.5 -35t-4 -58.5v-103q0 -27 -6 -53q20 6 45 6h129v-170h-129q-25 0 -45 6q6 -23 6 -45v-944 h-205v944q0 23 6 45q-23 -6 -45 -6h-94zM618 983v170h95q23 0 45 -6q-6 27 -6 53v119q0 61 9 112.5t37.5 86t81 54t140.5 19.5q12 0 30.5 -1t34.5 -1q20 -2 39 -2v-172h-22q-10 0 -19.5 1t-15.5 1q-35 0 -56.5 -4t-33.5 -16.5t-16.5 -35t-4.5 -58.5v-103q0 -27 -6 -53 q20 6 45 6h129v-170h-129q-25 0 -45 6q6 -23 6 -45v-944h-204v944q0 23 6 45q-23 -6 -45 -6h-95zM1255 0v1581h205v-1581h-205z" />
</font>
</defs>
</svg>
